  0
SECTION
  2
HEADER
  9
$ACADVER
  1
AC1015
  9
$ACADMAINTVER
 70
     6
  9
$DWGCODEPAGE
  3
ANSI_1252
  9
$INSBASE
 10
0.0
 20
0.0
 30
0.0
  9
$EXTMIN
 10
-250.0
 20
-210.0
 30
0.0
  9
$EXTMAX
 10
252.2748487212
 20
256.5075667304
 30
0.0
  9
$LIMMIN
 10
0.0
 20
0.0
  9
$LIMMAX
 10
420.0
 20
297.0
  9
$ORTHOMODE
 70
     0
  9
$REGENMODE
 70
     1
  9
$FILLMODE
 70
     1
  9
$QTEXTMODE
 70
     0
  9
$MIRRTEXT
 70
     1
  9
$LTSCALE
 40
1.0
  9
$ATTMODE
 70
     1
  9
$TEXTSIZE
 40
6.35
  9
$TRACEWID
 40
1.0
  9
$TEXTSTYLE
  7
Standard
  9
$CLAYER
  8
0
  9
$CELTYPE
  6
ByLayer
  9
$CECOLOR
 62
   256
  9
$CELTSCALE
 40
1.0
  9
$DISPSILH
 70
     0
  9
$DIMSCALE
 40
1.0
  9
$DIMASZ
 40
5.9944
  9
$DIMEXO
 40
0.9906
  9
$DIMDLI
 40
3.75
  9
$DIMRND
 40
0.0
  9
$DIMDLE
 40
0.0
  9
$DIMEXE
 40
0.9906
  9
$DIMTP
 40
0.0
  9
$DIMTM
 40
0.0
  9
$DIMTXT
 40
6.35
  9
$DIMCEN
 40
2.5
  9
$DIMTSZ
 40
0.0
  9
$DIMTOL
 70
     0
  9
$DIMLIM
 70
     0
  9
$DIMTIH
 70
     1
  9
$DIMTOH
 70
     1
  9
$DIMSE1
 70
     0
  9
$DIMSE2
 70
     0
  9
$DIMTAD
 70
     1
  9
$DIMZIN
 70
     0
  9
$DIMBLK
  1

  9
$DIMASO
 70
     1
  9
$DIMSHO
 70
     1
  9
$DIMPOST
  1

  9
$DIMAPOST
  1

  9
$DIMALT
 70
     0
  9
$DIMALTD
 70
     3
  9
$DIMALTF
 40
0.0393700787
  9
$DIMLFAC
 40
1.0
  9
$DIMTOFL
 70
     1
  9
$DIMTVP
 40
0.0
  9
$DIMTIX
 70
     0
  9
$DIMSOXD
 70
     0
  9
$DIMSAH
 70
     0
  9
$DIMBLK1
  1

  9
$DIMBLK2
  1

  9
$DIMSTYLE
  2
ISO-25
  9
$DIMCLRD
 70
     0
  9
$DIMCLRE
 70
     0
  9
$DIMCLRT
 70
     0
  9
$DIMTFAC
 40
1.0
  9
$DIMGAP
 40
1.524
  9
$DIMJUST
 70
     0
  9
$DIMSD1
 70
     0
  9
$DIMSD2
 70
     0
  9
$DIMTOLJ
 70
     0
  9
$DIMTZIN
 70
     0
  9
$DIMALTZ
 70
     0
  9
$DIMALTTZ
 70
     0
  9
$DIMUPT
 70
     0
  9
$DIMDEC
 70
     2
  9
$DIMTDEC
 70
     2
  9
$DIMALTU
 70
     2
  9
$DIMALTTD
 70
     3
  9
$DIMTXSTY
  7
Standard
  9
$DIMAUNIT
 70
     0
  9
$DIMADEC
 70
     2
  9
$DIMALTRND
 40
0.0
  9
$DIMAZIN
 70
     0
  9
$DIMDSEP
 70
    44
  9
$DIMATFIT
 70
     3
  9
$DIMFRAC
 70
     0
  9
$DIMLDRBLK
  1

  9
$DIMLUNIT
 70
     2
  9
$DIMLWD
 70
    -2
  9
$DIMLWE
 70
    -2
  9
$DIMTMOVE
 70
     0
  9
$LUNITS
 70
     2
  9
$LUPREC
 70
     2
  9
$SKETCHINC
 40
1.0
  9
$FILLETRAD
 40
10.0
  9
$AUNITS
 70
     0
  9
$AUPREC
 70
     2
  9
$MENU
  1
.
  9
$ELEVATION
 40
0.0
  9
$PELEVATION
 40
0.0
  9
$THICKNESS
 40
0.0
  9
$LIMCHECK
 70
     0
  9
$CHAMFERA
 40
0.0
  9
$CHAMFERB
 40
0.0
  9
$CHAMFERC
 40
0.0
  9
$CHAMFERD
 40
0.0
  9
$SKPOLY
 70
     0
  9
$TDCREATE
 40
2458165.642597789
  9
$TDUCREATE
 40
2458165.642597789
  9
$TDUPDATE
 40
2458165.642622338
  9
$TDUUPDATE
 40
2458165.642622338
  9
$TDINDWG
 40
0.0000000116
  9
$TDUSRTIMER
 40
0.0000000116
  9
$USRTIMER
 70
     1
  9
$ANGBASE
 50
0.0
  9
$ANGDIR
 70
     0
  9
$PDMODE
 70
     0
  9
$PDSIZE
 40
-1.0
  9
$PLINEWID
 40
0.0
  9
$SPLFRAME
 70
     0
  9
$SPLINETYPE
 70
     6
  9
$SPLINESEGS
 70
     8
  9
$HANDSEED
  5
C9
  9
$SURFTAB1
 70
     6
  9
$SURFTAB2
 70
     6
  9
$SURFTYPE
 70
     6
  9
$SURFU
 70
     6
  9
$SURFV
 70
     6
  9
$UCSBASE
  2

  9
$UCSNAME
  2

  9
$UCSORG
 10
0.0
 20
0.0
 30
0.0
  9
$UCSXDIR
 10
1.0
 20
0.0
 30
0.0
  9
$UCSYDIR
 10
0.0
 20
1.0
 30
0.0
  9
$UCSORTHOREF
  2

  9
$UCSORTHOVIEW
 70
     0
  9
$UCSORGTOP
 10
0.0
 20
0.0
 30
0.0
  9
$UCSORGBOTTOM
 10
0.0
 20
0.0
 30
0.0
  9
$UCSORGLEFT
 10
0.0
 20
0.0
 30
0.0
  9
$UCSORGRIGHT
 10
0.0
 20
0.0
 30
0.0
  9
$UCSORGFRONT
 10
0.0
 20
0.0
 30
0.0
  9
$UCSORGBACK
 10
0.0
 20
0.0
 30
0.0
  9
$PUCSBASE
  2

  9
$PUCSNAME
  2

  9
$PUCSORG
 10
0.0
 20
0.0
 30
0.0
  9
$PUCSXDIR
 10
1.0
 20
0.0
 30
0.0
  9
$PUCSYDIR
 10
0.0
 20
1.0
 30
0.0
  9
$PUCSORTHOREF
  2

  9
$PUCSORTHOVIEW
 70
     0
  9
$PUCSORGTOP
 10
0.0
 20
0.0
 30
0.0
  9
$PUCSORGBOTTOM
 10
0.0
 20
0.0
 30
0.0
  9
$PUCSORGLEFT
 10
0.0
 20
0.0
 30
0.0
  9
$PUCSORGRIGHT
 10
0.0
 20
0.0
 30
0.0
  9
$PUCSORGFRONT
 10
0.0
 20
0.0
 30
0.0
  9
$PUCSORGBACK
 10
0.0
 20
0.0
 30
0.0
  9
$USERI1
 70
     0
  9
$USERI2
 70
     0
  9
$USERI3
 70
     0
  9
$USERI4
 70
     0
  9
$USERI5
 70
     0
  9
$USERR1
 40
0.0
  9
$USERR2
 40
0.0
  9
$USERR3
 40
0.0
  9
$USERR4
 40
0.0
  9
$USERR5
 40
0.0
  9
$WORLDVIEW
 70
     1
  9
$SHADEDGE
 70
     3
  9
$SHADEDIF
 70
    70
  9
$TILEMODE
 70
     1
  9
$MAXACTVP
 70
    64
  9
$PINSBASE
 10
0.0
 20
0.0
 30
0.0
  9
$PLIMCHECK
 70
     0
  9
$PEXTMIN
 10
1.0000000000E+20
 20
1.0000000000E+20
 30
1.0000000000E+20
  9
$PEXTMAX
 10
-1.0000000000E+20
 20
-1.0000000000E+20
 30
-1.0000000000E+20
  9
$PLIMMIN
 10
0.0
 20
0.0
  9
$PLIMMAX
 10
420.0
 20
297.0
  9
$UNITMODE
 70
     0
  9
$VISRETAIN
 70
     1
  9
$PLINEGEN
 70
     0
  9
$PSLTSCALE
 70
     1
  9
$TREEDEPTH
 70
  3020
  9
$CMLSTYLE
  2
Standard
  9
$CMLJUST
 70
     0
  9
$CMLSCALE
 40
20.0
  9
$PROXYGRAPHICS
 70
     1
  9
$MEASUREMENT
 70
     1
  9
$CELWEIGHT
370
    -1
  9
$ENDCAPS
280
     0
  9
$JOINSTYLE
280
     0
  9
$LWDISPLAY
290
     1
  9
$INSUNITS
 70
     4
  9
$HYPERLINKBASE
  1

  9
$STYLESHEET
  1

  9
$XEDIT
290
     1
  9
$CEPSNTYPE
380
     0
  9
$PSTYLEMODE
290
     1
  9
$FINGERPRINTGUID
  2
{C806BB67-7E24-4E92-AF2C-AA5E1A6E7199}
  9
$VERSIONGUID
  2
{FAEB1C32-E019-11D5-929B-00C0DF256EC4}
  9
$EXTNAMES
290
     1
  9
$PSVPSCALE
 40
0.0
  9
$OLESTARTUP
290
     0
  0
ENDSEC
  0
SECTION
  2
CLASSES
  0
CLASS
  1
ACDBDICTIONARYWDFLT
  2
AcDbDictionaryWithDefault
  3
ObjectDBX Classes
 90
        0
280
     0
281
     0
  0
CLASS
  1
VISUALSTYLE
  2
AcDbVisualStyle
  3
ObjectDBX Classes
 90
     4095
280
     0
281
     0
  0
CLASS
  1
MATERIAL
  2
AcDbMaterial
  3
ObjectDBX Classes
 90
     1153
280
     0
281
     0
  0
CLASS
  1
SCALE
  2
AcDbScale
  3
ObjectDBX Classes
 90
     1153
280
     0
281
     0
  0
CLASS
  1
TABLESTYLE
  2
AcDbTableStyle
  3
ObjectDBX Classes
 90
     4095
280
     0
281
     0
  0
CLASS
  1
MLEADERSTYLE
  2
AcDbMLeaderStyle
  3
ACDB_MLEADERSTYLE_CLASS
 90
     4095
280
     0
281
     0
  0
CLASS
  1
SUN
  2
AcDbSun
  3
SCENEOE
 90
     1153
280
     0
281
     0
  0
CLASS
  1
ACDBPLACEHOLDER
  2
AcDbPlaceHolder
  3
ObjectDBX Classes
 90
        0
280
     0
281
     0
  0
CLASS
  1
LAYOUT
  2
AcDbLayout
  3
ObjectDBX Classes
 90
        0
280
     0
281
     0
  0
ENDSEC
  0
SECTION
  2
TABLES
  0
TABLE
  2
VPORT
  5
8
330
0
100
AcDbSymbolTable
 70
     1
  0
VPORT
  5
29
330
8
100
AcDbSymbolTableRecord
100
AcDbViewportTableRecord
  2
*Active
 70
     0
 10
0.0
 20
0.0
 11
1.0
 21
1.0
 12
1.1374243606
 22
23.2537833652
 13
0.0
 23
0.0
 14
10.0
 24
10.0
 15
10.0
 25
10.0
 16
0.0
 26
0.0
 36
1.0
 17
0.0
 27
0.0
 37
0.0
 40
475.837718065
 41
1.0766703148
 42
50.0
 43
0.0
 44
0.0
 50
0.0
 51
0.0
 71
     0
 72
   100
 73
     1
 74
     3
 75
     0
 76
     0
 77
     0
 78
     0
281
     0
 65
     1
110
0.0
120
0.0
130
0.0
111
1.0
121
0.0
131
0.0
112
0.0
122
1.0
132
0.0
 79
     0
146
0.0
  0
ENDTAB
  0
TABLE
  2
LTYPE
  5
5
330
0
100
AcDbSymbolTable
 70
     6
  0
LTYPE
  5
14
330
5
100
AcDbSymbolTableRecord
100
AcDbLinetypeTableRecord
  2
ByBlock
 70
     0
  3

 72
    65
 73
     0
 40
0.0
  0
LTYPE
  5
15
330
5
100
AcDbSymbolTableRecord
100
AcDbLinetypeTableRecord
  2
ByLayer
 70
     0
  3

 72
    65
 73
     0
 40
0.0
  0
LTYPE
  5
16
330
5
100
AcDbSymbolTableRecord
100
AcDbLinetypeTableRecord
  2
Continuous
 70
     0
  3
Solid line
 72
    65
 73
     0
 40
0.0
  0
LTYPE
  5
6E
330
5
100
AcDbSymbolTableRecord
100
AcDbLinetypeTableRecord
  2
HIDDEN
 70
     0
  3
Hidden __ __ __ __ __ __ __ __ __ __ __ __ __ __
 72
    65
 73
     2
 40
1.905
 49
1.27
 74
     0
 49
-0.635
 74
     0
  0
LTYPE
  5
6F
330
5
100
AcDbSymbolTableRecord
100
AcDbLinetypeTableRecord
  2
PHANTOM
 70
     0
  3
Phantom ______  __  __  ______  __  __  ______
 72
    65
 73
     6
 40
12.7
 49
6.35
 74
     0
 49
-1.27
 74
     0
 49
1.27
 74
     0
 49
-1.27
 74
     0
 49
1.27
 74
     0
 49
-1.27
 74
     0
  0
LTYPE
  5
70
330
5
100
AcDbSymbolTableRecord
100
AcDbLinetypeTableRecord
  2
CENTER
 70
     0
  3
Center ____ _ ____ _ ____ _ ____ _ ____ _ ____
 72
    65
 73
     4
 40
10.16
 49
6.35
 74
     0
 49
-1.27
 74
     0
 49
1.27
 74
     0
 49
-1.27
 74
     0
  0
LTYPE
  5
71
330
5
100
AcDbSymbolTableRecord
100
AcDbLinetypeTableRecord
  2
CENTERX2
 70
     0
  3
Center (2x) ________  __  ________  __  _____
 72
    65
 73
     4
 40
20.32
 49
12.7
 74
     0
 49
-2.54
 74
     0
 49
2.54
 74
     0
 49
-2.54
 74
     0
  0
LTYPE
  5
72
330
5
100
AcDbSymbolTableRecord
100
AcDbLinetypeTableRecord
  2
DOT2
 70
     0
  3
Dot (.5x) ........................................
 72
    65
 73
     2
 40
0.635
 49
0.0
 74
     0
 49
-0.635
 74
     0
  0
ENDTAB
  0
TABLE
  2
LAYER
  5
2
330
0
100
AcDbSymbolTable
 70
     1
  0
LAYER
  5
10
330
2
100
AcDbSymbolTableRecord
100
AcDbLayerTableRecord
  2
0
 70
     0
 62
     7
  6
Continuous
370
    -3
390
F
  0
ENDTAB
  0
TABLE
  2
STYLE
  5
3
330
0
100
AcDbSymbolTable
 70
     2
  0
STYLE
  5
11
330
3
100
AcDbSymbolTableRecord
100
AcDbTextStyleTableRecord
  2
Standard
 70
     0
 40
0.0
 41
1.0
 50
0.0
 71
     0
 42
6.35
  3
txt
  4

  0
STYLE
  5
C6
330
3
100
AcDbSymbolTableRecord
100
AcDbTextStyleTableRecord
  2
SLDTEXTSTYLE0
 70
     0
 40
0.0
 41
0.7
 50
0.0
 71
     0
 42
6.35
  3
TXT
  4

  0
ENDTAB
  0
TABLE
  2
VIEW
  5
6
330
0
100
AcDbSymbolTable
 70
     0
  0
ENDTAB
  0
TABLE
  2
UCS
  5
7
330
0
100
AcDbSymbolTable
 70
     0
  0
ENDTAB
  0
TABLE
  2
APPID
  5
9
330
0
100
AcDbSymbolTable
 70
     1
  0
APPID
  5
12
330
9
100
AcDbSymbolTableRecord
100
AcDbRegAppTableRecord
  2
ACAD
 70
     0
  0
ENDTAB
  0
TABLE
  2
DIMSTYLE
  5
A
330
0
100
AcDbSymbolTable
 70
     1
100
AcDbDimStyleTable
  0
DIMSTYLE
105
27
330
A
100
AcDbSymbolTableRecord
100
AcDbDimStyleTableRecord
  2
ISO-25
 70
     0
 41
2.5
 42
0.625
 43
3.75
 44
1.25
 73
     0
 74
     0
 77
     1
 78
     8
140
2.5
141
2.5
143
0.0393700787
147
0.625
171
     3
172
     1
178
     0
271
     2
272
     2
274
     3
278
    44
283
     0
284
     8
340
11
  0
ENDTAB
  0
TABLE
  2
BLOCK_RECORD
  5
1
330
0
100
AcDbSymbolTable
 70
     1
  0
BLOCK_RECORD
  5
1F
330
1
100
AcDbSymbolTableRecord
100
AcDbBlockTableRecord
  2
*Model_Space
340
22
  0
BLOCK_RECORD
  5
1B
330
1
100
AcDbSymbolTableRecord
100
AcDbBlockTableRecord
  2
*Paper_Space
340
1E
  0
BLOCK_RECORD
  5
23
330
1
100
AcDbSymbolTableRecord
100
AcDbBlockTableRecord
  2
*Paper_Space0
340
26
  0
ENDTAB
  0
ENDSEC
  0
SECTION
  2
BLOCKS
  0
BLOCK
  5
20
330
1F
100
AcDbEntity
  8
0
100
AcDbBlockBegin
  2
*Model_Space
 70
     0
 10
0.0
 20
0.0
 30
0.0
  3
*Model_Space
  1

  0
ENDBLK
  5
21
330
1F
100
AcDbEntity
  8
0
100
AcDbBlockEnd
  0
BLOCK
  5
1C
330
1B
100
AcDbEntity
 67
     1
  8
0
100
AcDbBlockBegin
  2
*Paper_Space
 70
     0
 10
0.0
 20
0.0
 30
0.0
  3
*Paper_Space
  1

  0
ENDBLK
  5
1D
330
1B
100
AcDbEntity
 67
     1
  8
0
100
AcDbBlockEnd
  0
BLOCK
  5
24
330
23
100
AcDbEntity
  8
0
100
AcDbBlockBegin
  2
*Paper_Space0
 70
     0
 10
0.0
 20
0.0
 30
0.0
  3
*Paper_Space0
  1

  0
ENDBLK
  5
25
330
23
100
AcDbEntity
  8
0
100
AcDbBlockEnd
  0
ENDSEC
  0
SECTION
  2
ENTITIES
  0
LINE
  5
73
330
1F
100
AcDbEntity
  8
0
  6
Continuous
 62
     7
100
AcDbLine
 10
-250.0
 20
210.0
 30
0.0
 11
250.0
 21
210.0
 31
0.0
  0
LINE
  5
74
330
1F
100
AcDbEntity
  8
0
  6
Continuous
 62
     7
100
AcDbLine
 10
250.0
 20
210.0
 30
0.0
 11
250.0
 21
-210.0
 31
0.0
  0
LINE
  5
75
330
1F
100
AcDbEntity
  8
0
  6
Continuous
 62
     7
100
AcDbLine
 10
250.0
 20
-210.0
 30
0.0
 11
-250.0
 21
-210.0
 31
0.0
  0
LINE
  5
76
330
1F
100
AcDbEntity
  8
0
  6
Continuous
 62
     7
100
AcDbLine
 10
-250.0
 20
-210.0
 30
0.0
 11
-250.0
 21
210.0
 31
0.0
  0
LINE
  5
77
330
1F
100
AcDbEntity
  8
0
  6
Continuous
 62
     7
100
AcDbLine
 10
-230.0
 20
208.0
 30
0.0
 11
170.0
 21
208.0
 31
0.0
  0
LINE
  5
78
330
1F
100
AcDbEntity
  8
0
  6
Continuous
 62
     7
100
AcDbLine
 10
170.0
 20
208.0
 30
0.0
 11
170.0
 21
-192.0
 31
0.0
  0
LINE
  5
79
330
1F
100
AcDbEntity
  8
0
  6
Continuous
 62
     7
100
AcDbLine
 10
170.0
 20
-192.0
 30
0.0
 11
-230.0
 21
-192.0
 31
0.0
  0
LINE
  5
7A
330
1F
100
AcDbEntity
  8
0
  6
Continuous
 62
     7
100
AcDbLine
 10
-230.0
 20
-192.0
 30
0.0
 11
-230.0
 21
208.0
 31
0.0
  0
LINE
  5
7B
330
1F
100
AcDbEntity
  8
0
  6
CENTERX2
 62
     7
100
AcDbLine
 10
0.0
 20
0.0
 30
0.0
 11
0.0
 21
256.5075667304
 31
0.0
  0
LINE
  5
7C
330
1F
100
AcDbEntity
  8
0
  6
CENTERX2
 62
     7
100
AcDbLine
 10
0.0
 20
0.0
 30
0.0
 11
252.2748487212
 21
0.0
 31
0.0
  0
LINE
  5
7D
330
1F
100
AcDbEntity
  8
0
  6
Continuous
 62
     7
100
AcDbLine
 10
-180.0
 20
-192.0
 30
0.0
 11
-180.0
 21
208.0
 31
0.0
  0
LINE
  5
7E
330
1F
100
AcDbEntity
  8
0
  6
Continuous
 62
     7
100
AcDbLine
 10
-130.0
 20
-192.0
 30
0.0
 11
-130.0
 21
208.0
 31
0.0
  0
LINE
  5
7F
330
1F
100
AcDbEntity
  8
0
  6
Continuous
 62
     7
100
AcDbLine
 10
-80.0
 20
-192.0
 30
0.0
 11
-80.0
 21
208.0
 31
0.0
  0
LINE
  5
80
330
1F
100
AcDbEntity
  8
0
  6
Continuous
 62
     7
100
AcDbLine
 10
-30.0
 20
-192.0
 30
0.0
 11
-30.0
 21
208.0
 31
0.0
  0
LINE
  5
81
330
1F
100
AcDbEntity
  8
0
  6
Continuous
 62
     7
100
AcDbLine
 10
20.0
 20
-192.0
 30
0.0
 11
20.0
 21
208.0
 31
0.0
  0
LINE
  5
82
330
1F
100
AcDbEntity
  8
0
  6
Continuous
 62
     7
100
AcDbLine
 10
70.0
 20
-192.0
 30
0.0
 11
70.0
 21
208.0
 31
0.0
  0
LINE
  5
83
330
1F
100
AcDbEntity
  8
0
  6
Continuous
 62
     7
100
AcDbLine
 10
120.0
 20
-192.0
 30
0.0
 11
120.0
 21
208.0
 31
0.0
  0
LINE
  5
84
330
1F
100
AcDbEntity
  8
0
  6
Continuous
 62
     7
100
AcDbLine
 10
170.0
 20
-192.0
 30
0.0
 11
-220.0
 21
-192.0
 31
0.0
  0
LINE
  5
85
330
1F
100
AcDbEntity
  8
0
  6
Continuous
 62
     7
100
AcDbLine
 10
170.0
 20
-142.0
 30
0.0
 11
-220.0
 21
-142.0
 31
0.0
  0
LINE
  5
86
330
1F
100
AcDbEntity
  8
0
  6
Continuous
 62
     7
100
AcDbLine
 10
170.0
 20
-92.0
 30
0.0
 11
-220.0
 21
-92.0
 31
0.0
  0
LINE
  5
87
330
1F
100
AcDbEntity
  8
0
  6
Continuous
 62
     7
100
AcDbLine
 10
170.0
 20
-42.0
 30
0.0
 11
-220.0
 21
-42.0
 31
0.0
  0
LINE
  5
88
330
1F
100
AcDbEntity
  8
0
  6
Continuous
 62
     7
100
AcDbLine
 10
170.0
 20
8.0
 30
0.0
 11
-220.0
 21
8.0
 31
0.0
  0
LINE
  5
89
330
1F
100
AcDbEntity
  8
0
  6
Continuous
 62
     7
100
AcDbLine
 10
170.0
 20
58.0
 30
0.0
 11
-220.0
 21
58.0
 31
0.0
  0
LINE
  5
8A
330
1F
100
AcDbEntity
  8
0
  6
Continuous
 62
     7
100
AcDbLine
 10
170.0
 20
108.0
 30
0.0
 11
-220.0
 21
108.0
 31
0.0
  0
LINE
  5
8B
330
1F
100
AcDbEntity
  8
0
  6
Continuous
 62
     7
100
AcDbLine
 10
170.0
 20
158.0
 30
0.0
 11
-220.0
 21
158.0
 31
0.0
  0
LINE
  5
8C
330
1F
100
AcDbEntity
  8
0
  6
Continuous
 62
     7
100
AcDbLine
 10
170.0
 20
-142.0
 30
0.0
 11
-230.0
 21
-142.0
 31
0.0
  0
LINE
  5
8D
330
1F
100
AcDbEntity
  8
0
  6
Continuous
 62
     7
100
AcDbLine
 10
170.0
 20
-92.0
 30
0.0
 11
-230.0
 21
-92.0
 31
0.0
  0
LINE
  5
8E
330
1F
100
AcDbEntity
  8
0
  6
Continuous
 62
     7
100
AcDbLine
 10
170.0
 20
-42.0
 30
0.0
 11
-230.0
 21
-42.0
 31
0.0
  0
LINE
  5
8F
330
1F
100
AcDbEntity
  8
0
  6
Continuous
 62
     7
100
AcDbLine
 10
170.0
 20
8.0
 30
0.0
 11
-230.0
 21
8.0
 31
0.0
  0
LINE
  5
90
330
1F
100
AcDbEntity
  8
0
  6
Continuous
 62
     7
100
AcDbLine
 10
170.0
 20
58.0
 30
0.0
 11
-230.0
 21
58.0
 31
0.0
  0
LINE
  5
91
330
1F
100
AcDbEntity
  8
0
  6
Continuous
 62
     7
100
AcDbLine
 10
170.0
 20
108.0
 30
0.0
 11
-230.0
 21
108.0
 31
0.0
  0
LINE
  5
92
330
1F
100
AcDbEntity
  8
0
  6
Continuous
 62
     7
100
AcDbLine
 10
170.0
 20
158.0
 30
0.0
 11
-230.0
 21
158.0
 31
0.0
  0
LINE
  5
93
330
1F
100
AcDbEntity
  8
0
  6
CENTERX2
 62
     7
100
AcDbLine
 10
-230.0
 20
-205.5
 30
0.0
 11
-180.0
 21
-205.5
 31
0.0
  0
LINE
  5
94
330
1F
100
AcDbEntity
  8
0
  6
CENTERX2
 62
     7
100
AcDbLine
 10
-180.0
 20
-205.5
 30
0.0
 11
-130.0
 21
-205.5
 31
0.0
  0
LINE
  5
95
330
1F
100
AcDbEntity
  8
0
  6
CENTERX2
 62
     7
100
AcDbLine
 10
-130.0
 20
-205.5
 30
0.0
 11
-80.0
 21
-205.5
 31
0.0
  0
LINE
  5
96
330
1F
100
AcDbEntity
  8
0
  6
CENTERX2
 62
     7
100
AcDbLine
 10
-80.0
 20
-205.5
 30
0.0
 11
-30.0
 21
-205.5
 31
0.0
  0
LINE
  5
97
330
1F
100
AcDbEntity
  8
0
  6
CENTERX2
 62
     7
100
AcDbLine
 10
-30.0
 20
-205.5
 30
0.0
 11
20.0
 21
-205.5
 31
0.0
  0
LINE
  5
98
330
1F
100
AcDbEntity
  8
0
  6
CENTERX2
 62
     7
100
AcDbLine
 10
20.0
 20
-205.5
 30
0.0
 11
70.0
 21
-205.5
 31
0.0
  0
LINE
  5
99
330
1F
100
AcDbEntity
  8
0
  6
CENTERX2
 62
     7
100
AcDbLine
 10
70.0
 20
-205.5
 30
0.0
 11
120.0
 21
-205.5
 31
0.0
  0
LINE
  5
9A
330
1F
100
AcDbEntity
  8
0
  6
CENTERX2
 62
     7
100
AcDbLine
 10
120.0
 20
-205.5
 30
0.0
 11
170.0
 21
-205.5
 31
0.0
  0
LINE
  5
9B
330
1F
100
AcDbEntity
  8
0
  6
CENTERX2
 62
     7
100
AcDbLine
 10
187.0
 20
201.0
 30
0.0
 11
187.0
 21
151.0
 31
0.0
  0
LINE
  5
9C
330
1F
100
AcDbEntity
  8
0
  6
Continuous
 62
     7
100
AcDbLine
 10
198.0
 20
208.0
 30
0.0
 11
248.0
 21
208.0
 31
0.0
  0
LINE
  5
9D
330
1F
100
AcDbEntity
  8
0
  6
Continuous
 62
     7
100
AcDbLine
 10
198.0
 20
208.0
 30
0.0
 11
198.0
 21
-192.0
 31
0.0
  0
LINE
  5
9E
330
1F
100
AcDbEntity
  8
0
  6
Continuous
 62
     7
100
AcDbLine
 10
198.0
 20
-192.0
 30
0.0
 11
248.0
 21
-192.0
 31
0.0
  0
LINE
  5
9F
330
1F
100
AcDbEntity
  8
0
  6
Continuous
 62
     7
100
AcDbLine
 10
248.0
 20
208.0
 30
0.0
 11
248.0
 21
-192.0
 31
0.0
  0
LINE
  5
A0
330
1F
100
AcDbEntity
  8
0
  6
CENTERX2
 62
     7
100
AcDbLine
 10
187.0
 20
151.0
 30
0.0
 11
187.0
 21
101.0
 31
0.0
  0
LINE
  5
A1
330
1F
100
AcDbEntity
  8
0
  6
CENTERX2
 62
     7
100
AcDbLine
 10
187.0
 20
101.0
 30
0.0
 11
187.0
 21
51.0
 31
0.0
  0
LINE
  5
A2
330
1F
100
AcDbEntity
  8
0
  6
CENTERX2
 62
     7
100
AcDbLine
 10
187.0
 20
51.0
 30
0.0
 11
187.0
 21
1.0
 31
0.0
  0
LINE
  5
A3
330
1F
100
AcDbEntity
  8
0
  6
CENTERX2
 62
     7
100
AcDbLine
 10
187.0
 20
1.0
 30
0.0
 11
187.0
 21
-49.0
 31
0.0
  0
LINE
  5
A4
330
1F
100
AcDbEntity
  8
0
  6
CENTERX2
 62
     7
100
AcDbLine
 10
187.0
 20
-49.0
 30
0.0
 11
187.0
 21
-99.0
 31
0.0
  0
LINE
  5
A5
330
1F
100
AcDbEntity
  8
0
  6
CENTERX2
 62
     7
100
AcDbLine
 10
187.0
 20
-99.0
 30
0.0
 11
187.0
 21
-149.0
 31
0.0
  0
LINE
  5
A6
330
1F
100
AcDbEntity
  8
0
  6
CENTERX2
 62
     7
100
AcDbLine
 10
187.0
 20
-149.0
 30
0.0
 11
187.0
 21
-199.0
 31
0.0
  0
LINE
  5
A7
330
1F
100
AcDbEntity
  8
0
  6
Continuous
 62
     7
100
AcDbLine
 10
198.0
 20
158.0
 30
0.0
 11
248.0
 21
158.0
 31
0.0
  0
LINE
  5
A8
330
1F
100
AcDbEntity
  8
0
  6
Continuous
 62
     7
100
AcDbLine
 10
198.0
 20
108.0
 30
0.0
 11
248.0
 21
108.0
 31
0.0
  0
LINE
  5
A9
330
1F
100
AcDbEntity
  8
0
  6
Continuous
 62
     7
100
AcDbLine
 10
198.0
 20
58.0
 30
0.0
 11
248.0
 21
58.0
 31
0.0
  0
LINE
  5
AA
330
1F
100
AcDbEntity
  8
0
  6
Continuous
 62
     7
100
AcDbLine
 10
198.0
 20
8.0
 30
0.0
 11
248.0
 21
8.0
 31
0.0
  0
LINE
  5
AB
330
1F
100
AcDbEntity
  8
0
  6
Continuous
 62
     7
100
AcDbLine
 10
198.0
 20
-42.0
 30
0.0
 11
248.0
 21
-42.0
 31
0.0
  0
LINE
  5
AC
330
1F
100
AcDbEntity
  8
0
  6
Continuous
 62
     7
100
AcDbLine
 10
198.0
 20
-92.0
 30
0.0
 11
248.0
 21
-92.0
 31
0.0
  0
LINE
  5
AD
330
1F
100
AcDbEntity
  8
0
  6
Continuous
 62
     7
100
AcDbLine
 10
198.0
 20
-142.0
 30
0.0
 11
248.0
 21
-142.0
 31
0.0
  0
LWPOLYLINE
  5
AE
330
1F
100
AcDbEntity
  8
0
  6
Continuous
 62
     7
100
AcDbPolyline
 90
       24
 70
   128
 43
0.0
 10
-207.5643539429
 20
-198.0916666667
 10
-206.8995726496
 20
-198.0916666667
 10
-206.8995726496
 20
-198.0916666667
 10
-206.8995726496
 20
-201.130982906
 10
-206.8995726496
 20
-201.130982906
 10
-203.1004273504
 20
-201.130982906
 10
-203.1004273504
 20
-201.130982906
 10
-203.1004273504
 20
-198.0916666667
 10
-203.1004273504
 20
-198.0916666667
 10
-202.4355769231
 20
-198.0916666667
 10
-202.4355769231
 20
-198.0916666667
 10
-202.4355769231
 20
-205.5
 10
-202.4355769231
 20
-205.5
 10
-203.1004273504
 20
-205.5
 10
-203.1004273504
 20
-205.5
 10
-203.1004273504
 20
-201.8908119658
 10
-203.1004273504
 20
-201.8908119658
 10
-206.8995726496
 20
-201.8908119658
 10
-206.8995726496
 20
-201.8908119658
 10
-206.8995726496
 20
-205.5
 10
-206.8995726496
 20
-205.5
 10
-207.5644230769
 20
-205.5
 10
-207.5644230769
 20
-205.5
 10
-207.5644230769
 20
-198.0916666667
  0
LWPOLYLINE
  5
AF
330
1F
100
AcDbEntity
  8
0
  6
Continuous
 62
     7
100
AcDbPolyline
 90
      169
 70
   128
 43
0.0
 10
-158.4191322327
 20
-199.3560697115
 10
-157.8493589744
 20
-199.8962606838
 10
-157.8493589744
 20
-199.8962606838
 10
-157.5332582131
 20
-199.6113247863
 10
-157.2038010817
 20
-199.3620058761
 10
-156.8580194979
 20
-199.1497879941
 10
-156.4988815438
 20
-198.9746711405
 10
-156.1338074252
 20
-198.8381393563
 10
-155.77318543
 20
-198.7401926416
 10
-155.4184995994
 20
-198.6808309963
 10
-155.0682658921
 20
-198.6615384615
 10
-155.0682658921
 20
-198.6615384615
 10
-154.8530799279
 20
-198.6674746261
 10
-154.6393780048
 20
-198.6882512019
 10
-154.4301282051
 20
-198.7209001068
 10
-154.2223624466
 20
-198.7669053819
 10
-154.0175647703
 20
-198.8262670272
 10
-153.8142511351
 20
-198.8989850427
 10
-153.6153896234
 20
-198.9850594284
 10
-153.4180121528
 20
-199.0844901843
 10
-153.2265708467
 20
-199.1943092281
 10
-153.0470018697
 20
-199.3145165598
 10
-152.8793052217
 20
-199.4436281384
 10
-152.7219968616
 20
-199.5831280048
 10
-152.5750767895
 20
-199.7315321181
 10
-152.4400290465
 20
-199.8888404781
 10
-152.3153695913
 20
-200.0550530849
 10
-152.2025824653
 20
-200.2316539797
 10
-152.1016676683
 20
-200.414191039
 10
-152.0141092415
 20
-200.5996961806
 10
-151.9399071848
 20
-200.7866853632
 10
-151.8790614984
 20
-200.9781266693
 10
-151.8315721822
 20
-201.1695679754
 10
-151.7974392361
 20
-201.3654614049
 10
-151.7781467014
 20
-201.5628388755
 10
-151.7707264957
 20
-201.7631844284
 10
-151.7707264957
 20
-201.7631844284
 10
-151.7781467014
 20
-201.9679821047
 10
-151.7989232772
 20
-202.1712957399
 10
-151.8360243056
 20
-202.3716412927
 10
-151.8849976629
 20
-202.5690187634
 10
-151.9502954728
 20
-202.7634281517
 10
-152.0289496528
 20
-202.9563534989
 10
-152.1224442441
 20
-203.1463107639
 10
-152.2307792468
 20
-203.3332999466
 10
-152.3509865785
 20
-203.5143529647
 10
-152.4830662393
 20
-203.6865017361
 10
-152.625534188
 20
-203.8467781784
 10
-152.7783904247
 20
-203.9981503739
 10
-152.9431189904
 20
-204.1406183226
 10
-153.118235844
 20
-204.2712139423
 10
-153.3052250267
 20
-204.3929053152
 10
-153.5026024973
 20
-204.5042084001
 10
-153.7074001736
 20
-204.603639156
 10
-153.9181340144
 20
-204.6911975828
 10
-154.1333199786
 20
-204.7639155983
 10
-154.3529580662
 20
-204.8232772436
 10
-154.5785323184
 20
-204.8707665598
 10
-154.8085586939
 20
-204.9034154647
 10
-155.0430371928
 20
-204.9241920406
 10
-155.2819678152
 20
-204.9301282051
 10
-155.2819678152
 20
-204.9301282051
 10
-155.5698717949
 20
-204.9197399172
 10
-155.8459034455
 20
-204.8900590946
 10
-156.1115468082
 20
-204.8410857372
 10
-156.3653178419
 20
-204.771335804
 10
-156.6072165465
 20
-204.682293336
 10
-156.8387269631
 20
-204.5724742922
 10
-157.0583650507
 20
-204.4433627137
 10
-157.2676148504
 20
-204.2949586004
 10
-157.4605401976
 20
-204.1302300347
 10
-157.632688969
 20
-203.9551131811
 10
-157.7840611645
 20
-203.7666399573
 10
-157.9131727431
 20
-203.5677784455
 10
-158.024475828
 20
-203.3555605636
 10
-158.1135182959
 20
-203.1329543937
 10
-158.181784188
 20
-202.8969918536
 10
-158.2292735043
 20
-202.6506410256
 10
-158.2292735043
 20
-202.6506410256
 10
-155.7598290598
 20
-202.6506410256
 10
-155.7598290598
 20
-202.6506410256
 10
-155.7598290598
 20
-201.8908119658
 10
-155.7598290598
 20
-201.8908119658
 10
-158.8941239316
 20
-201.8908119658
 10
-158.8941239316
 20
-201.8908119658
 10
-158.876315438
 20
-202.3152477297
 10
-158.8273420807
 20
-202.7189069177
 10
-158.7472038595
 20
-203.0988214476
 10
-158.6373848157
 20
-203.4564753606
 10
-158.4964009081
 20
-203.7918686565
 10
-158.3242521368
 20
-204.1050013355
 10
-158.1209385016
 20
-204.3943893563
 10
-157.8879440438
 20
-204.6630008013
 10
-157.6282368456
 20
-204.9034154647
 10
-157.3477530716
 20
-205.1126652644
 10
-157.0464927217
 20
-205.2892661592
 10
-156.7244557959
 20
-205.433218149
 10
-156.3801582532
 20
-205.5460052751
 10
-156.0165681757
 20
-205.6261434963
 10
-155.6307174813
 20
-205.6736328125
 10
-155.224090211
 20
-205.689957265
 10
-155.224090211
 20
-205.689957265
 10
-154.9732872596
 20
-205.6840211004
 10
-154.7299045139
 20
-205.667696648
 10
-154.4939419738
 20
-205.6409839076
 10
-154.2639155983
 20
-205.6023988381
 10
-154.0398253873
 20
-205.5534254808
 10
-153.8231553819
 20
-205.4925797943
 10
-153.6124215411
 20
-205.42134582
 10
-153.4076238649
 20
-205.3397235577
 10
-153.2102463942
 20
-205.2462289663
 10
-153.0202891293
 20
-205.1423460871
 10
-152.8362680288
 20
-205.0280749199
 10
-152.6581830929
 20
-204.9019314236
 10
-152.4875183627
 20
-204.7653996394
 10
-152.322789797
 20
-204.6169955262
 10
-152.165481437
 20
-204.458203125
 10
-152.0141092415
 20
-204.2890224359
 10
-152.0141092415
 20
-204.2890224359
 10
-151.8018913595
 20
-204.0144748264
 10
-151.6163862179
 20
-203.7280548878
 10
-151.460561899
 20
-203.4327307025
 10
-151.3329343616
 20
-203.125534188
 10
-151.2335036058
 20
-202.8079493857
 10
-151.1622696314
 20
-202.4799762954
 10
-151.1207164797
 20
-202.1416149172
 10
-151.1058760684
 20
-201.7928652511
 10
-151.1058760684
 20
-201.7928652511
 10
-151.113296274
 20
-201.5316740118
 10
-151.1385249733
 20
-201.2749348958
 10
-151.1785940839
 20
-201.0226479033
 10
-151.2349876469
 20
-200.7762970753
 10
-151.3091897035
 20
-200.5329143296
 10
-151.3982321715
 20
-200.2954677484
 10
-151.5035990919
 20
-200.0609892495
 10
-151.6252904647
 20
-199.8324469151
 10
-151.7603382078
 20
-199.6113247863
 10
-151.908742321
 20
-199.4035590278
 10
-152.0675347222
 20
-199.2076655983
 10
-152.2396834936
 20
-199.025128539
 10
-152.423704594
 20
-198.8529797676
 10
-152.6195980235
 20
-198.6941873665
 10
-152.8273637821
 20
-198.5472672943
 10
-153.0470018697
 20
-198.4137035924
 10
-153.2770282452
 20
-198.2934962607
 10
-153.5129907853
 20
-198.1896133814
 10
-153.7578575721
 20
-198.1020549546
 10
-154.0101445646
 20
-198.0293369391
 10
-154.2683677217
 20
-197.9744274172
 10
-154.5354951255
 20
-197.9343583066
 10
-154.8085586939
 20
-197.9091296074
 10
-155.0905265091
 20
-197.9017094017
 10
-155.0905265091
 20
-197.9017094017
 10
-155.3205528846
 20
-197.9076455662
 10
-155.5461271368
 20
-197.9239700187
 10
-155.7687333066
 20
-197.9506827591
 10
-155.9868873531
 20
-197.9877837874
 10
-156.2035573584
 20
-198.0367571448
 10
-156.4157752404
 20
-198.0961187901
 10
-156.6250250401
 20
-198.1658687233
 10
-156.8298227163
 20
-198.2474909856
 10
-157.0331363515
 20
-198.3409855769
 10
-157.2349659455
 20
-198.4463524973
 10
-157.4353114984
 20
-198.5650757879
 10
-157.6341730101
 20
-198.6971554487
 10
-157.8330345219
 20
-198.8425914797
 10
-158.0289279514
 20
-199.0013838809
 10
-158.2248213809
 20
-199.1720486111
 10
-158.4192307692
 20
-199.3560697115
  0
LWPOLYLINE
  5
B0
330
1F
100
AcDbEntity
  8
0
  6
Continuous
 62
     7
100
AcDbPolyline
 90
       20
 70
   128
 43
0.0
 10
-103.4803390503
 20
-198.0916666667
 10
-107.0895299145
 20
-198.0916666667
 10
-107.0895299145
 20
-198.0916666667
 10
-107.0895299145
 20
-198.8514957265
 10
-107.0895299145
 20
-198.8514957265
 10
-104.1451923077
 20
-198.8514957265
 10
-104.1451923077
 20
-198.8514957265
 10
-104.1451923077
 20
-201.130982906
 10
-104.1451923077
 20
-201.130982906
 10
-107.0895299145
 20
-201.130982906
 10
-107.0895299145
 20
-201.130982906
 10
-107.0895299145
 20
-201.8908119658
 10
-107.0895299145
 20
-201.8908119658
 10
-104.1451923077
 20
-201.8908119658
 10
-104.1451923077
 20
-201.8908119658
 10
-104.1451923077
 20
-205.5
 10
-104.1451923077
 20
-205.5
 10
-103.4803418803
 20
-205.5
 10
-103.4803418803
 20
-205.5
 10
-103.4803418803
 20
-198.0916666667
  0
LWPOLYLINE
  5
B1
330
1F
100
AcDbEntity
  8
0
  6
Continuous
 62
     7
100
AcDbPolyline
 90
       24
 70
   128
 43
0.0
 10
-53.195387125
 20
-198.0916666667
 10
-57.374465812
 20
-198.0916666667
 10
-57.374465812
 20
-198.0916666667
 10
-57.374465812
 20
-198.8514957265
 10
-57.374465812
 20
-198.8514957265
 10
-53.8602564103
 20
-198.8514957265
 10
-53.8602564103
 20
-198.8514957265
 10
-53.8602564103
 20
-201.130982906
 10
-53.8602564103
 20
-201.130982906
 10
-57.374465812
 20
-201.130982906
 10
-57.374465812
 20
-201.130982906
 10
-57.374465812
 20
-201.8908119658
 10
-57.374465812
 20
-201.8908119658
 10
-53.8602564103
 20
-201.8908119658
 10
-53.8602564103
 20
-201.8908119658
 10
-53.8602564103
 20
-204.7401709402
 10
-53.8602564103
 20
-204.7401709402
 10
-57.374465812
 20
-204.7401709402
 10
-57.374465812
 20
-204.7401709402
 10
-57.374465812
 20
-205.5
 10
-57.374465812
 20
-205.5
 10
-53.1954059829
 20
-205.5
 10
-53.1954059829
 20
-205.5
 10
-53.1954059829
 20
-198.0916666667
  0
LWPOLYLINE
  5
B2
330
1F
100
AcDbEntity
  8
0
  6
Continuous
 62
     7
100
AcDbPolyline
 90
       57
 70
   128
 43
0.0
 10
-2.1506398916
 20
-205.5
 10
-2.1506410256
 20
-198.0916666667
 10
-2.1506410256
 20
-198.0916666667
 10
-3.6465544872
 20
-198.0916666667
 10
-3.6465544872
 20
-198.0916666667
 10
-4.036857305
 20
-198.0961187901
 10
-4.4004473825
 20
-198.1079911191
 10
-4.7358406784
 20
-198.128767695
 10
-5.0430371928
 20
-198.1584485176
 10
-5.3235209669
 20
-198.1955495459
 10
-5.5758079594
 20
-198.241554821
 10
-5.7998981704
 20
-198.2964643429
 10
-5.997275641
 20
-198.3587940705
 10
-5.997275641
 20
-198.3587940705
 10
-6.2525307158
 20
-198.4611929087
 10
-6.4929453793
 20
-198.5814002404
 10
-6.7200036725
 20
-198.7194160657
 10
-6.9322215545
 20
-198.8752403846
 10
-7.1295990251
 20
-199.047389156
 10
-7.3136201255
 20
-199.2358623798
 10
-7.4828008146
 20
-199.4436281384
 10
-7.6386251335
 20
-199.6677183494
 10
-7.7766409589
 20
-199.9066489717
 10
-7.8968482906
 20
-200.1559678819
 10
-7.9992471287
 20
-200.4171591213
 10
-8.080869391
 20
-200.6887386485
 10
-8.1461672009
 20
-200.9721905048
 10
-8.192172476
 20
-201.2675146902
 10
-8.2203692575
 20
-201.5732271635
 10
-8.2292735043
 20
-201.8893279247
 10
-8.2292735043
 20
-201.8893279247
 10
-8.2218532986
 20
-202.1638755342
 10
-8.1995926816
 20
-202.4295188969
 10
-8.1639756944
 20
-202.6862580128
 10
-8.1120342548
 20
-202.9355769231
 10
-8.046736445
 20
-203.1759915865
 10
-7.9665982238
 20
-203.4089860443
 10
-7.8716195913
 20
-203.6330762553
 10
-7.7618005475
 20
-203.8482622196
 10
-7.6401091747
 20
-204.0530598958
 10
-7.509513555
 20
-204.2430171608
 10
-7.3714977297
 20
-204.4196180556
 10
-7.2230936165
 20
-204.5828625801
 10
-7.0672692975
 20
-204.7327507345
 10
-6.9010566907
 20
-204.8677984776
 10
-6.7274238782
 20
-204.9894898504
 10
-6.5448868189
 20
-205.096340812
 10
-6.3475093483
 20
-205.1913194444
 10
-6.1323233841
 20
-205.2729417067
 10
-5.8978448851
 20
-205.34269164
 10
-5.6455578926
 20
-205.399085203
 10
-5.3739783654
 20
-205.443606437
 10
-5.0831063034
 20
-205.4747713007
 10
-4.7744257479
 20
-205.4940638355
 10
-4.4464526576
 20
-205.5
 10
-4.4464526576
 20
-205.5
 10
-2.1506410256
 20
-205.5
  0
LWPOLYLINE
  5
B3
330
1F
100
AcDbEntity
  8
0
  6
Continuous
 62
     7
100
AcDbPolyline
 90
       58
 70
   128
 43
0.0
 10
-2.8154905885
 20
-204.7401709402
 10
-3.6658470219
 20
-204.7401709402
 10
-3.6658470219
 20
-204.7401709402
 10
-4.0324051816
 20
-204.7372028579
 10
-4.3707665598
 20
-204.7282986111
 10
-4.6794471154
 20
-204.7134581998
 10
-4.9584468483
 20
-204.6926816239
 10
-5.2092497997
 20
-204.6659688835
 10
-5.4303719284
 20
-204.6348040198
 10
-5.6218132345
 20
-204.5962189503
 10
-5.7835737179
 20
-204.5516977163
 10
-5.7835737179
 20
-204.5516977163
 10
-5.985403312
 20
-204.4774956597
 10
-6.1768446181
 20
-204.391421274
 10
-6.3564135951
 20
-204.290506477
 10
-6.5241102431
 20
-204.177719351
 10
-6.6829026442
 20
-204.0500918136
 10
-6.8298227163
 20
-203.909107906
 10
-6.9648704594
 20
-203.7562516693
 10
-7.0895299145
 20
-203.5885550214
 10
-7.2008329995
 20
-203.4104700855
 10
-7.2972956731
 20
-203.2219968616
 10
-7.3789179354
 20
-203.0231353499
 10
-7.4456997863
 20
-202.8153695913
 10
-7.497641226
 20
-202.598699586
 10
-7.5347422543
 20
-202.3716412927
 10
-7.5570028713
 20
-202.1341947115
 10
-7.5644230769
 20
-201.8878438835
 10
-7.5644230769
 20
-201.8878438835
 10
-7.5570028713
 20
-201.6281366854
 10
-7.531774172
 20
-201.3788177751
 10
-7.4917050614
 20
-201.1398871528
 10
-7.4353114984
 20
-200.9098607772
 10
-7.3625934829
 20
-200.6887386485
 10
-7.2750350561
 20
-200.4780048077
 10
-7.1696681357
 20
-200.2761752137
 10
-7.049460804
 20
-200.0847339076
 10
-6.9144130609
 20
-199.9051649306
 10
-6.7660089476
 20
-199.7404363649
 10
-6.6057325053
 20
-199.5905482105
 10
-6.4320996928
 20
-199.4540164263
 10
-6.2465945513
 20
-199.3338090946
 10
-6.0477330395
 20
-199.226958133
 10
-5.8369991987
 20
-199.1364316239
 10
-5.6129089877
 20
-199.059261485
 10
-5.6129089877
 20
-199.059261485
 10
-5.425919805
 20
-199.0102881277
 10
-5.2122178819
 20
-198.968734976
 10
-4.9688351362
 20
-198.9331179888
 10
-4.6987396501
 20
-198.9034371661
 10
-4.4004473825
 20
-198.8811765491
 10
-4.0739583333
 20
-198.8648520967
 10
-3.7192725027
 20
-198.8544638088
 10
-3.3363898905
 20
-198.8514957265
 10
-3.3363898905
 20
-198.8514957265
 10
-2.815491453
 20
-198.8514957265
 10
-2.815491453
 20
-198.8514957265
 10
-2.815491453
 20
-204.7401709402
  0
LWPOLYLINE
  5
B4
330
1F
100
AcDbEntity
  8
0
  6
Continuous
 62
     7
100
AcDbPolyline
 90
      145
 70
   128
 43
0.0
 10
41.3908064365
 20
-199.451048344
 10
41.9725560897
 20
-199.8962606838
 10
41.9725560897
 20
-199.8962606838
 10
42.098699586
 20
-199.7493406116
 10
42.2307792468
 20
-199.6113247863
 10
42.3687950721
 20
-199.4822132078
 10
42.512747062
 20
-199.3620058761
 10
42.6641192575
 20
-199.2521868323
 10
42.8199435764
 20
-199.1497879941
 10
42.983188101
 20
-199.0577774439
 10
43.1523687901
 20
-198.9746711405
 10
43.5055705796
 20
-198.8381393563
 10
43.8750968216
 20
-198.7401926416
 10
44.260947516
 20
-198.6808309963
 10
44.6646067041
 20
-198.6615384615
 10
44.6646067041
 20
-198.6615384615
 10
44.8872128739
 20
-198.6674746261
 10
45.1068509615
 20
-198.6882512019
 10
45.3220369257
 20
-198.7209001068
 10
45.5327707666
 20
-198.7669053819
 10
45.739052484
 20
-198.8262670272
 10
45.940882078
 20
-198.8975010016
 10
46.1382595486
 20
-198.9835753873
 10
46.332668937
 20
-199.081522102
 10
46.5196581197
 20
-199.1913411458
 10
46.6947749733
 20
-199.3100644364
 10
46.859503539
 20
-199.4376919738
 10
47.0138438168
 20
-199.574223758
 10
47.1563117655
 20
-199.719659789
 10
47.2883914263
 20
-199.8740000668
 10
47.4100827991
 20
-200.0372445913
 10
47.5213858841
 20
-200.2093933627
 10
47.62081664
 20
-200.3889623397
 10
47.7068910256
 20
-200.5744674813
 10
47.7796090411
 20
-200.7659087874
 10
47.8389706864
 20
-200.963286258
 10
47.8849759615
 20
-201.165115852
 10
47.9176248665
 20
-201.3713975694
 10
47.9384014423
 20
-201.5850994925
 10
47.9443376068
 20
-201.803253539
 10
47.9443376068
 20
-201.803253539
 10
47.9294971955
 20
-202.1312266293
 10
47.8849759615
 20
-202.4443593082
 10
47.812257946
 20
-202.744135617
 10
47.7083750668
 20
-203.0305555556
 10
47.576295406
 20
-203.3021350828
 10
47.4130508814
 20
-203.5603582399
 10
47.2216095753
 20
-203.8052250267
 10
47.0004874466
 20
-204.0352514022
 10
46.7571047009
 20
-204.2445012019
 10
46.4973975027
 20
-204.4270382612
 10
46.2228498932
 20
-204.5798944979
 10
45.9334618723
 20
-204.7060379941
 10
45.627749399
 20
-204.8039847089
 10
45.3071965144
 20
-204.8737346421
 10
44.9703191774
 20
-204.9167718349
 10
44.618601429
 20
-204.9301282051
 10
44.618601429
 20
-204.9301282051
 10
44.2312666934
 20
-204.9108356704
 10
43.8602564103
 20
-204.8529580662
 10
43.5055705796
 20
-204.7564953926
 10
43.1657251603
 20
-204.6214476496
 10
42.8436882345
 20
-204.4478148371
 10
42.5364917201
 20
-204.2355969551
 10
42.2471036993
 20
-203.9847940037
 10
41.9725560897
 20
-203.6954059829
 10
41.9725560897
 20
-203.6954059829
 10
41.3908119658
 20
-204.1361661993
 10
41.3908119658
 20
-204.1361661993
 10
41.5332799145
 20
-204.3157351763
 10
41.68465211
 20
-204.4863999065
 10
41.8434445112
 20
-204.6451923077
 10
42.0111411592
 20
-204.7935964209
 10
42.187742054
 20
-204.9316122463
 10
42.3732471955
 20
-205.0592397837
 10
42.5661725427
 20
-205.1764790331
 10
42.7680021368
 20
-205.2833299947
 10
42.9772519364
 20
-205.3783086271
 10
43.1939219418
 20
-205.4614149306
 10
43.4150440705
 20
-205.5311648638
 10
43.6435864049
 20
-205.5890424679
 10
43.8765808627
 20
-205.6320796608
 10
44.1169955262
 20
-205.6647285657
 10
44.361862313
 20
-205.6840211004
 10
44.6141493056
 20
-205.689957265
 10
44.6141493056
 20
-205.689957265
 10
44.8530799279
 20
-205.6855051416
 10
45.0860743857
 20
-205.6691806891
 10
45.3116486378
 20
-205.6439519899
 10
45.5312867254
 20
-205.6083350027
 10
45.7449886485
 20
-205.5638137687
 10
45.9512703659
 20
-205.5074202057
 10
46.1516159188
 20
-205.4421223958
 10
46.3460253072
 20
-205.3664362981
 10
46.534498531
 20
-205.2803619124
 10
46.7155515491
 20
-205.1838992388
 10
46.8906684028
 20
-205.0770482772
 10
47.0598490919
 20
-204.9612930689
 10
47.2216095753
 20
-204.8351495726
 10
47.3774338942
 20
-204.6986177885
 10
47.5273220486
 20
-204.5516977163
 10
47.6697899973
 20
-204.3943893563
 10
47.6697899973
 20
-204.3943893563
 10
47.8894280849
 20
-204.1139055823
 10
48.080869391
 20
-203.8185813969
 10
48.2426298745
 20
-203.5099008413
 10
48.3747095353
 20
-203.1878639156
 10
48.4771083734
 20
-202.8495025374
 10
48.5498263889
 20
-202.497784789
 10
48.5943476229
 20
-202.1327106704
 10
48.6091880342
 20
-201.7527961405
 10
48.6091880342
 20
-201.7527961405
 10
48.5913795406
 20
-201.3535890759
 10
48.5379540598
 20
-200.9707064637
 10
48.4489115919
 20
-200.604148304
 10
48.3257361779
 20
-200.2539145967
 10
48.1654597356
 20
-199.9200053419
 10
47.9695663061
 20
-199.6009364984
 10
47.7395399306
 20
-199.2996761485
 10
47.4724125267
 20
-199.0132562099
 10
47.1785723825
 20
-198.7520649706
 10
46.8684077858
 20
-198.5264907185
 10
46.5389506544
 20
-198.3365334535
 10
46.1916850294
 20
-198.1792250935
 10
45.8266109108
 20
-198.0575337206
 10
45.4437282986
 20
-197.9714593349
 10
45.0415531517
 20
-197.9195178953
 10
44.6230535524
 20
-197.9017094017
 10
44.6230535524
 20
-197.9017094017
 10
44.3677984776
 20
-197.9076455662
 10
44.1184795673
 20
-197.926938101
 10
43.8765808627
 20
-197.9595870059
 10
43.6406183226
 20
-198.0041082399
 10
43.409107906
 20
-198.0605018029
 10
43.185017695
 20
-198.1302517361
 10
42.9683476896
 20
-198.2133580395
 10
42.7561298077
 20
-198.308336672
 10
42.5528161725
 20
-198.4151876335
 10
42.3584067842
 20
-198.532426883
 10
42.1743856838
 20
-198.6600544204
 10
41.9992688301
 20
-198.7980702457
 10
41.8330562233
 20
-198.946474359
 10
41.6757478632
 20
-199.103782719
 10
41.5288277911
 20
-199.2729634081
 10
41.3908119658
 20
-199.451048344
  0
LWPOLYLINE
  5
B5
330
1F
100
AcDbEntity
  8
0
  6
Continuous
 62
     7
100
AcDbPolyline
 90
       62
 70
   128
 43
0.0
 10
96.9945192337
 20
-198.0916666667
 10
95.549095219
 20
-198.0916666667
 10
95.549095219
 20
-198.0916666667
 10
95.3368773371
 20
-198.0946347489
 10
95.1380158253
 20
-198.1050230369
 10
94.9510266426
 20
-198.1213474893
 10
94.7773938301
 20
-198.1450921474
 10
94.6156333467
 20
-198.173288929
 10
94.4672292334
 20
-198.2103899573
 10
94.3306974493
 20
-198.2534271501
 10
94.2075220353
 20
-198.3024005075
 10
93.9849158654
 20
-198.4226078392
 10
93.7875383948
 20
-198.5710119525
 10
93.6153896234
 20
-198.7476128472
 10
93.4669855101
 20
-198.9524105235
 10
93.3482622196
 20
-199.1779847756
 10
93.263671875
 20
-199.4154313568
 10
93.2117304354
 20
-199.6662343082
 10
93.1954059829
 20
-199.9274255475
 10
93.1954059829
 20
-199.9274255475
 10
93.2087623531
 20
-200.1722923344
 10
93.2503155048
 20
-200.4052867922
 10
93.3170973558
 20
-200.6264089209
 10
93.4120759882
 20
-200.8371427618
 10
93.5337673611
 20
-201.0330361912
 10
93.6806874332
 20
-201.209637086
 10
93.8543202457
 20
-201.3654614049
 10
94.0516977163
 20
-201.5034772302
 10
94.0516977163
 20
-201.5034772302
 10
93.800894765
 20
-201.6043920272
 10
93.5797726362
 20
-201.714211071
 10
93.3898153713
 20
-201.8329343616
 10
93.2310229701
 20
-201.9590778579
 10
93.095975227
 20
-202.0970936832
 10
92.9757678953
 20
-202.2484658787
 10
92.871885016
 20
-202.4146784856
 10
92.7843265892
 20
-202.5927634215
 10
92.714576656
 20
-202.7827206864
 10
92.6656032986
 20
-202.9800981571
 10
92.635922476
 20
-203.1848958333
 10
92.625534188
 20
-203.3971137153
 10
92.625534188
 20
-203.3971137153
 10
92.635922476
 20
-203.6137837206
 10
92.6656032986
 20
-203.8215494792
 10
92.7160606971
 20
-204.0204109909
 10
92.7858106303
 20
-204.2103682559
 10
92.8763371394
 20
-204.3929053152
 10
92.9861561832
 20
-204.5665381277
 10
93.1167518029
 20
-204.7312666934
 10
93.2666399573
 20
-204.8885750534
 10
93.4343366052
 20
-205.0325270433
 10
93.6153896234
 20
-205.1557024573
 10
93.8097990118
 20
-205.2610693777
 10
94.0190488114
 20
-205.3471437634
 10
94.2416549813
 20
-205.4139256143
 10
94.4776175214
 20
-205.4614149306
 10
94.7269364316
 20
-205.4910957532
 10
94.9910957532
 20
-205.5
 10
94.9910957532
 20
-205.5
 10
96.9945512821
 20
-205.5
 10
96.9945512821
 20
-205.5
 10
96.9945512821
 20
-198.0916666667
  0
LWPOLYLINE
  5
B6
330
1F
100
AcDbEntity
  8
0
  6
Continuous
 62
     7
100
AcDbPolyline
 90
       40
 70
   128
 43
0.0
 10
96.3296890259
 20
-198.8514957265
 10
96.3297008547
 20
-201.2259615385
 10
96.3297008547
 20
-201.2259615385
 10
95.8830044738
 20
-201.2259615385
 10
95.8830044738
 20
-201.2259615385
 10
95.6871110443
 20
-201.2229934562
 10
95.504573985
 20
-201.2170572917
 10
95.3339092548
 20
-201.2051849626
 10
95.1780849359
 20
-201.1903445513
 10
95.0356169872
 20
-201.1695679754
 10
94.9065054087
 20
-201.1443392762
 10
94.7907502003
 20
-201.1161424947
 10
94.6883513622
 20
-201.0820095486
 10
94.507298344
 20
-201.0003872863
 10
94.3470219017
 20
-200.8965044071
 10
94.204553953
 20
-200.7733289931
 10
94.0828625801
 20
-200.6278929621
 10
93.9849158654
 20
-200.4691005609
 10
93.9166499733
 20
-200.3014039129
 10
93.8736127804
 20
-200.1262870593
 10
93.8602564103
 20
-199.9407819177
 10
93.8602564103
 20
-199.9407819177
 10
93.8661925748
 20
-199.8176065037
 10
93.8840010684
 20
-199.7003672543
 10
93.9121978499
 20
-199.5890641693
 10
93.9537510016
 20
-199.4866653312
 10
94.0056924412
 20
-199.3902026576
 10
94.0709902511
 20
-199.2996761485
 10
94.1466763488
 20
-199.2165698451
 10
94.2342347756
 20
-199.1408837473
 10
94.3351495726
 20
-199.0726178552
 10
94.4494207399
 20
-199.0147402511
 10
94.5785323184
 20
-198.9642828526
 10
94.7210002671
 20
-198.924213742
 10
94.876824586
 20
-198.8915648371
 10
95.0460052751
 20
-198.8693042201
 10
95.2300263755
 20
-198.8559478499
 10
95.4274038462
 20
-198.8514957265
 10
95.4274038462
 20
-198.8514957265
 10
96.3297008547
 20
-198.8514957265
  0
LWPOLYLINE
  5
B7
330
1F
100
AcDbEntity
  8
0
  6
Continuous
 62
     7
100
AcDbPolyline
 90
       45
 70
   128
 43
0.0
 10
96.3296890259
 20
-201.9857905983
 10
96.3297008547
 20
-204.7401709402
 10
96.3297008547
 20
-204.7401709402
 10
95.3828826122
 20
-204.7401709402
 10
95.3828826122
 20
-204.7401709402
 10
95.179568977
 20
-204.7372028579
 10
94.9910957532
 20
-204.7312666934
 10
94.8174629407
 20
-204.7179103232
 10
94.6571864984
 20
-204.7015858707
 10
94.5102664263
 20
-204.6793252537
 10
94.3767027244
 20
-204.6540965545
 10
94.2579794338
 20
-204.6214476496
 10
94.1540965545
 20
-204.5858306624
 10
93.9685914129
 20
-204.4982722356
 10
93.8023788061
 20
-204.3899372329
 10
93.6539746928
 20
-204.2578575721
 10
93.5263471554
 20
-204.1050013355
 10
93.4224642762
 20
-203.9387887286
 10
93.3497462607
 20
-203.7651559161
 10
93.3052250267
 20
-203.584102898
 10
93.2903846154
 20
-203.3971137153
 10
93.2903846154
 20
-203.3971137153
 10
93.2948367388
 20
-203.2798744658
 10
93.3111611912
 20
-203.1656032986
 10
93.3363898905
 20
-203.0557842548
 10
93.3720068777
 20
-202.9489332933
 10
93.4165281116
 20
-202.8465344551
 10
93.4729216747
 20
-202.7485877404
 10
93.5382194845
 20
-202.6536091079
 10
93.6139055823
 20
-202.5615985577
 10
93.790506477
 20
-202.396869992
 10
93.9982722356
 20
-202.2618222489
 10
94.2357188168
 20
-202.1534872463
 10
94.5028462206
 20
-202.0733490251
 10
94.5028462206
 20
-202.0733490251
 10
94.6111812233
 20
-202.0525724493
 10
94.7388087607
 20
-202.0347639557
 10
94.8842447917
 20
-202.0199235443
 10
95.0489733574
 20
-202.0080512153
 10
95.2300263755
 20
-201.9976629274
 10
95.4318559696
 20
-201.9917267628
 10
95.6514940572
 20
-201.9872746394
 10
95.8889406384
 20
-201.9857905983
 10
95.8889406384
 20
-201.9857905983
 10
96.3297008547
 20
-201.9857905983
  0
LWPOLYLINE
  5
B8
330
1F
100
AcDbEntity
  8
0
  6
Continuous
 62
     7
100
AcDbPolyline
 90
       16
 70
   128
 43
0.0
 10
144.9049711227
 20
-198.0916666667
 10
141.4857905983
 20
-205.5
 10
141.4857905983
 20
-205.5
 10
142.2085186298
 20
-205.5
 10
142.2085186298
 20
-205.5
 10
143.3037409856
 20
-203.125534188
 10
143.3037409856
 20
-203.125534188
 10
146.6621260684
 20
-203.125534188
 10
146.6621260684
 20
-203.125534188
 10
147.7885132879
 20
-205.5
 10
147.7885132879
 20
-205.5
 10
148.5142094017
 20
-205.5
 10
148.5142094017
 20
-205.5
 10
145.0
 20
-198.0916666667
 10
145.0
 20
-198.0916666667
 10
144.9050213675
 20
-198.0916666667
  0
LWPOLYLINE
  5
B9
330
1F
100
AcDbEntity
  8
0
  6
Continuous
 62
     7
100
AcDbPolyline
 90
        6
 70
   128
 43
0.0
 10
144.9599266052
 20
-199.5356386886
 10
146.3015040732
 20
-202.3657051282
 10
146.3015040732
 20
-202.3657051282
 10
143.6539746928
 20
-202.3657051282
 10
143.6539746928
 20
-202.3657051282
 10
144.9599308894
 20
-199.5356386886
  0
LWPOLYLINE
  5
BA
330
1F
100
AcDbEntity
  8
0
  6
Continuous
 62
     7
100
AcDbPolyline
 90
      113
 70
   128
 43
0.0
 10
182.546377182
 20
183.9938803127
 10
182.3407291945
 20
183.8833501658
 10
182.1485767854
 20
183.7694190914
 10
181.9700280866
 20
183.6520870893
 10
181.806783562
 20
183.5296536959
 10
181.6588432116
 20
183.4038193749
 10
181.5245065716
 20
183.2745841263
 10
181.403773642
 20
183.1419479501
 10
181.2983448865
 20
183.0042103824
 10
181.2065198415
 20
182.8630718872
 10
181.126598043
 20
182.7151315368
 10
181.0585794911
 20
182.5637902589
 10
181.0041646496
 20
182.4090480533
 10
180.9599525908
 20
182.2475039925
 10
180.9293442425
 20
182.0825590041
 10
180.9123396045
 20
181.9125126244
 10
180.9055377493
 20
181.7373648532
 10
180.9055377493
 20
181.7373648532
 10
180.9157405321
 20
181.4924980664
 10
180.9463488804
 20
181.2544331347
 10
180.9956623306
 20
181.0231700582
 10
181.0670818101
 20
180.7987088369
 10
181.1572063913
 20
180.5827499346
 10
181.2677365382
 20
180.3752933513
 10
181.3969717868
 20
180.1729381594
 10
181.5483130648
 20
179.9790852865
 10
181.5483130648
 20
179.9790852865
 10
181.7557696481
 20
179.7614259204
 10
181.983631797
 20
179.570973975
 10
182.2335999752
 20
179.411130378
 10
182.5056741829
 20
179.2801946656
 10
182.7981539561
 20
179.1781668378
 10
183.1110392948
 20
179.1050468945
 10
183.4460306629
 20
179.0625352995
 10
183.8014275967
 20
179.0472311254
 10
183.8014275967
 20
179.0472311254
 10
184.14322082
 20
179.0608348357
 10
184.4646084777
 20
179.0982450393
 10
184.7655905699
 20
179.1628626636
 10
185.0444666327
 20
179.2512867811
 10
185.3012366662
 20
179.3669183193
 10
185.5359006702
 20
179.5080568145
 10
185.7501591087
 20
179.6730018029
 10
185.9440119817
 20
179.865154212
 10
186.1157588252
 20
180.0726107953
 10
186.2636991756
 20
180.28516877
 10
186.3878330329
 20
180.5028281361
 10
186.4915613245
 20
180.7238884298
 10
186.571483123
 20
180.9534510425
 10
186.6275984283
 20
181.1864145828
 10
186.6616077043
 20
181.4244795144
 10
186.6735109509
 20
181.6676458375
 10
186.6735109509
 20
181.6676458375
 10
186.6667090957
 20
181.8461945363
 10
186.6480039939
 20
182.0196418436
 10
186.6173956455
 20
182.1879877596
 10
186.5748840506
 20
182.352932748
 10
186.5187687453
 20
182.5127763449
 10
186.4507501934
 20
182.6692190143
 10
186.3708283949
 20
182.8205602923
 10
186.277302886
 20
182.9668001789
 10
186.1718741306
 20
183.1096391379
 10
186.0494407371
 20
183.2473767055
 10
185.9134036333
 20
183.3817133455
 10
185.7603618915
 20
183.5109485941
 10
185.5937164394
 20
183.638483379
 10
185.4100663492
 20
183.7609167724
 10
185.2128125487
 20
183.8799492382
 10
184.9985541102
 20
183.9938803127
 10
184.9985541102
 20
183.9938803127
 10
185.2893334196
 20
184.1622262286
 10
185.5410020616
 20
184.3492772464
 10
185.7535600363
 20
184.5567338297
 10
185.9270073437
 20
184.7828955148
 10
186.0630444475
 20
185.0226609102
 10
186.159970884
 20
185.2709286247
 10
186.2194871169
 20
185.5276986581
 10
186.2381922187
 20
185.7929710106
 10
186.2381922187
 20
185.7929710106
 10
186.2177866531
 20
186.0633447544
 10
186.1565699564
 20
186.3303175706
 10
186.0528416647
 20
186.595589923
 10
185.9100027057
 20
186.8574613479
 10
185.7297535432
 20
187.1023281347
 10
185.5188960323
 20
187.3199875008
 10
185.2757297092
 20
187.5104394462
 10
185.0019550378
 20
187.6736839707
 10
184.7077748008
 20
187.8046196832
 10
184.3999908534
 20
187.8964447282
 10
184.0820041233
 20
187.9525600336
 10
183.7504136827
 20
187.9712651353
 10
183.7504136827
 20
187.9712651353
 10
183.4273255612
 20
187.9525600336
 10
183.11784115
 20
187.8964447282
 10
182.8185595216
 20
187.8012187556
 10
182.5328816036
 20
187.6702830431
 10
182.269309715
 20
187.5070385186
 10
182.0346457109
 20
187.3148861094
 10
181.8305900552
 20
187.0989272071
 10
181.6571427478
 20
186.8540604203
 10
181.5194051802
 20
186.5921889954
 10
181.42077828
 20
186.3235157154
 10
181.3612620471
 20
186.049741044
 10
181.3408564815
 20
185.7691645174
 10
181.3408564815
 20
185.7691645174
 10
181.3595615833
 20
185.4936893822
 10
181.4156768886
 20
185.2335184211
 10
181.5109028612
 20
184.9903520981
 10
181.6418385737
 20
184.7607894854
 10
181.8118849534
 20
184.5465310469
 10
182.0193415367
 20
184.3475767826
 10
182.2642083236
 20
184.1622262286
 10
182.546485314
 20
183.9938803127
  0
LWPOLYLINE
  5
BB
330
1F
100
AcDbEntity
  8
0
  6
Continuous
 62
     7
100
AcDbPolyline
 90
       64
 70
   128
 43
0.0
 10
183.7928295135
 20
187.1006276709
 10
183.9714739764
 20
187.0938258157
 10
184.1415203562
 20
187.0768211778
 10
184.303064417
 20
187.0462128294
 10
184.4578066225
 20
187.0037012345
 10
184.6057469729
 20
186.949286393
 10
184.7434845405
 20
186.881267841
 10
184.874420253
 20
186.8030465064
 10
184.9985541102
 20
186.7112214613
 10
185.1107847208
 20
186.6108940972
 10
185.2077111573
 20
186.5071658056
 10
185.2893334196
 20
186.3966356587
 10
185.3573519715
 20
186.2827045843
 10
185.4083658854
 20
186.1653725822
 10
185.445776089
 20
186.041238725
 10
185.4695825821
 20
185.9137039402
 10
185.4763844373
 20
185.781067764
 10
185.4763844373
 20
185.781067764
 10
185.4678821183
 20
185.6484315878
 10
185.4440756252
 20
185.5208968029
 10
185.403264494
 20
185.3950624819
 10
185.3471491887
 20
185.2726290885
 10
185.2757297092
 20
185.1535966227
 10
185.1873055917
 20
185.0362646206
 10
185.0818768363
 20
184.92403401
 10
184.9611439066
 20
184.8135038631
 10
184.8302081942
 20
184.7114760353
 10
184.6941710904
 20
184.6230519178
 10
184.5513321314
 20
184.5499319745
 10
184.4050922448
 20
184.4887152778
 10
184.252050503
 20
184.4411022914
 10
184.0939073698
 20
184.4070930155
 10
183.9306628453
 20
184.3866874499
 10
183.7623169293
 20
184.3798855947
 10
183.7623169293
 20
184.3798855947
 10
183.546358027
 20
184.3917888413
 10
183.3355005161
 20
184.4291990449
 10
183.1314448604
 20
184.4904157416
 10
182.9324905961
 20
184.5771393953
 10
182.7471400421
 20
184.6842686145
 10
182.5838955176
 20
184.8084024717
 10
182.4427570223
 20
184.9529418945
 10
182.3220240927
 20
185.1144859553
 10
182.22679812
 20
185.2845323351
 10
182.1570791043
 20
185.4545787148
 10
182.1162679732
 20
185.6263255584
 10
182.1026642628
 20
185.798072402
 10
182.1026642628
 20
185.798072402
 10
182.109466118
 20
185.9188053316
 10
182.1298716836
 20
186.0361373336
 10
182.1638809595
 20
186.1517688719
 10
182.2114939459
 20
186.2639994825
 10
182.2710101788
 20
186.3745296294
 10
182.3458305859
 20
186.4833593124
 10
182.4325542396
 20
186.5887880679
 10
182.5345820674
 20
186.6925163595
 10
182.6485131419
 20
186.7877423322
 10
182.7760479267
 20
186.8710650583
 10
182.9154859581
 20
186.940784074
 10
183.0668272361
 20
186.9985998431
 10
183.2300717607
 20
187.0428119018
 10
183.4052195318
 20
187.075120714
 10
183.5922705495
 20
187.0938258157
 10
183.7929252777
 20
187.1006276709
  0
LWPOLYLINE
  5
BC
330
1F
100
AcDbEntity
  8
0
  6
Continuous
 62
     7
100
AcDbPolyline
 90
       64
 70
   128
 43
0.0
 10
183.743596077
 20
183.5092481303
 10
183.9697735126
 20
183.5007458114
 10
184.1857324149
 20
183.4735383906
 10
184.3931889982
 20
183.4310267957
 10
184.5904427988
 20
183.3698100989
 10
184.7791942803
 20
183.2898883004
 10
184.957742979
 20
183.1946623278
 10
185.1277893588
 20
183.0807312533
 10
185.2876329558
 20
182.9497955409
 10
185.4338728424
 20
182.8069565819
 10
185.5614076272
 20
182.6573157677
 10
185.6685368465
 20
182.5025735621
 10
185.7552605001
 20
182.3427299652
 10
185.823279052
 20
182.176084513
 10
185.8725925022
 20
182.0043376694
 10
185.9015003867
 20
181.8257889707
 10
185.9117031695
 20
181.6421388805
 10
185.9117031695
 20
181.6421388805
 10
185.8946985315
 20
181.4142767317
 10
185.8453850814
 20
181.193216438
 10
185.7620623553
 20
180.9789579995
 10
185.6447303533
 20
180.7715014162
 10
185.4984904667
 20
180.5776485432
 10
185.3267436231
 20
180.4093026273
 10
185.126088895
 20
180.2630627407
 10
184.8999272099
 20
180.1406293472
 10
184.6516594955
 20
180.0437029108
 10
184.3846866792
 20
179.9739838951
 10
184.0973082974
 20
179.9314723001
 10
183.7929252777
 20
179.9178685897
 10
183.7929252777
 20
179.9178685897
 10
183.554860346
 20
179.9263709087
 10
183.3303991247
 20
179.9518778657
 10
183.11784115
 20
179.9943894606
 10
182.9188868857
 20
180.0522052298
 10
182.7301354041
 20
180.1287261006
 10
182.554987633
 20
180.2222516095
 10
182.3917431084
 20
180.3310812926
 10
182.2421022942
 20
180.4586160774
 10
182.1077656542
 20
180.596353645
 10
181.9904336522
 20
180.7408930678
 10
181.8918067519
 20
180.890533882
 10
181.8118849534
 20
181.0452760876
 10
181.7489677929
 20
181.2051196846
 10
181.7030552704
 20
181.3717651367
 10
181.6758478496
 20
181.5435119803
 10
181.6673455306
 20
181.722060679
 10
181.6673455306
 20
181.722060679
 10
181.6775483134
 20
181.8955079864
 10
181.7047557342
 20
182.0621534386
 10
181.7523687205
 20
182.2253979631
 10
181.8203872724
 20
182.3835410963
 10
181.9054104623
 20
182.5365828381
 10
182.009138754
 20
182.6845231885
 10
182.1332726112
 20
182.8290626113
 10
182.2761115702
 20
182.9668001789
 10
182.4325542396
 20
183.0943349637
 10
182.5957987641
 20
183.2048651106
 10
182.7675456077
 20
183.2966901556
 10
182.9477947702
 20
183.3732110265
 10
183.134845788
 20
183.4327272594
 10
183.3303991247
 20
183.4752388544
 10
183.5327543166
 20
183.5007458114
 10
183.7436118275
 20
183.5092481303
  0
LWPOLYLINE
  5
BD
330
1F
100
AcDbEntity
  8
0
  6
Continuous
 62
     7
100
AcDbPolyline
 90
       12
 70
   128
 43
0.0
 10
186.1293315887
 20
137.7536057692
 10
180.9055377493
 20
137.7536057692
 10
180.9055377493
 20
137.7536057692
 10
185.3675547543
 20
129.0472311254
 10
185.3675547543
 20
129.0472311254
 10
186.025634244
 20
129.4094299143
 10
186.025634244
 20
129.4094299143
 10
182.1944893079
 20
136.8829683048
 10
182.1944893079
 20
136.8829683048
 10
186.1293625356
 20
136.8829683048
 10
186.1293625356
 20
136.8829683048
 10
186.1293625356
 20
137.7536057692
  0
LWPOLYLINE
  5
BE
330
1F
100
AcDbEntity
  8
0
  6
Continuous
 62
     7
100
AcDbPolyline
 90
       65
 70
   128
 43
0.0
 10
182.7555894852
 20
87.9712651353
 10
182.1689823509
 20
87.5104394462
 10
182.1689823509
 20
87.5104394462
 10
184.4118941
 20
84.0806039663
 10
184.4118941
 20
84.0806039663
 10
183.9629716574
 20
84.1418206631
 10
183.5327543166
 20
84.1622262286
 10
183.5327543166
 20
84.1622262286
 10
183.2742838194
 20
84.150322982
 10
183.0260161049
 20
84.1163137061
 10
182.7879511733
 20
84.0601984008
 10
182.5600890244
 20
83.9802766023
 10
182.3424296583
 20
83.8782487744
 10
182.1332726112
 20
83.7541149172
 10
181.9360188107
 20
83.6061745668
 10
181.7472673291
 20
83.436128187
 10
181.5755204856
 20
83.2490771693
 10
181.4258796714
 20
83.0518233688
 10
181.3000453503
 20
82.8443667855
 10
181.1980175225
 20
82.6250069556
 10
181.118095724
 20
82.3971448067
 10
181.0602799549
 20
82.1573794112
 10
181.0262706789
 20
81.907411233
 10
181.0143674323
 20
81.6472402719
 10
181.0143674323
 20
81.6472402719
 10
181.0364734617
 20
81.2918433382
 10
181.0993906222
 20
80.9534510425
 10
181.2065198415
 20
80.6337638485
 10
181.3544601919
 20
80.3310812926
 10
181.5432116734
 20
80.050504766
 10
181.7659724309
 20
79.8022370515
 10
182.0261433919
 20
79.5828772216
 10
182.3203236289
 20
79.3941257401
 10
182.6400108229
 20
79.2427844621
 10
182.9699007996
 20
79.133954779
 10
183.3133944867
 20
79.0693371547
 10
183.6670909566
 20
79.0472311254
 10
183.6670909566
 20
79.0472311254
 10
184.00888418
 20
79.0676366909
 10
184.3387741567
 20
79.1305538514
 10
184.6567608869
 20
79.2359826069
 10
184.9611439066
 20
79.3839229573
 10
185.243420897
 20
79.5692735112
 10
185.4933890753
 20
79.7869328773
 10
185.7127489052
 20
80.042002447
 10
185.8980994591
 20
80.3293808288
 10
186.0477402733
 20
80.6388652399
 10
186.1531690288
 20
80.9585524339
 10
186.2177866531
 20
81.2901428744
 10
186.2381922187
 20
81.6319360978
 10
186.2381922187
 20
81.6319360978
 10
186.2245885083
 20
81.8938075226
 10
186.1871783047
 20
82.1641812664
 10
186.1208602166
 20
82.4396564016
 10
186.0307356353
 20
82.721933392
 10
185.97462033
 20
82.8681732786
 10
185.9066017781
 20
83.0229154842
 10
185.8300809072
 20
83.1827590812
 10
185.7416567898
 20
83.3511049972
 10
185.6447303533
 20
83.5279532321
 10
185.5359006702
 20
83.7099028585
 10
185.4185686682
 20
83.9003548038
 10
185.2893334196
 20
84.0976086043
 10
185.2893334196
 20
84.0976086043
 10
182.7556423611
 20
87.9712651353
  0
LWPOLYLINE
  5
BF
330
1F
100
AcDbEntity
  8
0
  6
Continuous
 62
     7
100
AcDbPolyline
 90
       68
 70
   128
 43
0.0
 10
183.692574501
 20
83.2915887642
 10
183.8864507865
 20
83.2830864453
 10
184.0718013405
 20
83.2609804159
 10
184.2469491116
 20
83.2218697485
 10
184.4118941
 20
83.167454907
 10
184.5683367694
 20
83.0994363551
 10
184.7162771198
 20
83.0144131652
 10
184.8540146874
 20
82.9140858012
 10
184.9815494722
 20
82.7984542629
 10
185.0971810105
 20
82.6726199419
 10
185.1975083745
 20
82.5382833019
 10
185.2825315644
 20
82.3988452705
 10
185.3522505801
 20
82.2526053839
 10
185.4066654216
 20
82.0995636421
 10
185.445776089
 20
81.9397200451
 10
185.4678821183
 20
81.7747750568
 10
185.4763844373
 20
81.6013277494
 10
185.4763844373
 20
81.6013277494
 10
185.4678821183
 20
81.4295809058
 10
185.4423751614
 20
81.2646359175
 10
185.3998635664
 20
81.1064927843
 10
185.3403473335
 20
80.9551515063
 10
185.2638264626
 20
80.8089116197
 10
185.1720014175
 20
80.6694735883
 10
185.0614712707
 20
80.5368374121
 10
184.9339364859
 20
80.4110030911
 10
184.7944984545
 20
80.2953715528
 10
184.6499590317
 20
80.1950441888
 10
184.4969172899
 20
80.1100209989
 10
184.3370736929
 20
80.0403019832
 10
184.1704282407
 20
79.9875876054
 10
183.9952804696
 20
79.9484769381
 10
183.815031307
 20
79.9263709087
 10
183.6262798255
 20
79.9178685897
 10
183.6262798255
 20
79.9178685897
 10
183.437528344
 20
79.9263709087
 10
183.2572791814
 20
79.9484769381
 10
183.0821314103
 20
79.9875876054
 10
182.9154859581
 20
80.0403019832
 10
182.7556423611
 20
80.1100209989
 10
182.6026006193
 20
80.1950441888
 10
182.4563607327
 20
80.2953715528
 10
182.3169227013
 20
80.4110030911
 10
182.1893879165
 20
80.5368374121
 10
182.0805582335
 20
80.6694735883
 10
181.9870327246
 20
80.8089116197
 10
181.9122123175
 20
80.9551515063
 10
181.8526960846
 20
81.1064927843
 10
181.8101844896
 20
81.2646359175
 10
181.7846775327
 20
81.4295809058
 10
181.7761752137
 20
81.6013277494
 10
181.7761752137
 20
81.6013277494
 10
181.7846775327
 20
81.7747750568
 10
181.8118849534
 20
81.9397200451
 10
181.8543965484
 20
82.0995636421
 10
181.9173137089
 20
82.2526053839
 10
181.9955350436
 20
82.3988452705
 10
182.09246148
 20
82.5382833019
 10
182.2063925545
 20
82.6726199419
 10
182.3373282669
 20
82.7984542629
 10
182.4818676897
 20
82.9140858012
 10
182.6332089677
 20
83.0144131652
 10
182.7913521009
 20
83.0994363551
 10
182.9562970892
 20
83.167454907
 10
183.1297443966
 20
83.2218697485
 10
183.3099935591
 20
83.2609804159
 10
183.4970445769
 20
83.2830864453
 10
183.6925979136
 20
83.2915887642
  0
LWPOLYLINE
  5
C0
330
1F
100
AcDbEntity
  8
0
  6
Continuous
 62
     7
100
AcDbPolyline
 90
      132
 70
   128
 43
0.0
 10
181.3408136368
 20
37.7536057692
 10
181.3408564815
 20
36.8829683048
 10
181.3408564815
 20
36.8829683048
 10
184.2282440099
 20
36.8829683048
 10
184.2282440099
 20
36.8829683048
 10
184.6856687714
 20
34.6502593386
 10
184.6856687714
 20
34.6502593386
 10
184.4152950276
 20
34.7216788181
 10
184.1585249942
 20
34.7743931958
 10
183.9153586711
 20
34.8050015441
 10
183.6857960584
 20
34.8152043269
 10
183.6857960584
 20
34.8152043269
 10
183.4018186042
 20
34.8033010803
 10
183.1297443966
 20
34.7658908768
 10
182.8712738994
 20
34.7063746439
 10
182.6247066487
 20
34.6196509902
 10
182.3917431084
 20
34.5108213071
 10
182.1706828147
 20
34.3764846671
 10
181.9632262314
 20
34.218341534
 10
181.7676728947
 20
34.0363919076
 10
181.5908246597
 20
33.8340367157
 10
181.4377829179
 20
33.6180778134
 10
181.3085476693
 20
33.3902156645
 10
181.2031189139
 20
33.1470493414
 10
181.1197961878
 20
32.890279308
 10
181.0619804187
 20
32.6199055642
 10
181.0262706789
 20
32.33592811
 10
181.0143674323
 20
32.0383469454
 10
181.0143674323
 20
32.0383469454
 10
181.0211692875
 20
31.8308903621
 10
181.0381739255
 20
31.6268347064
 10
181.0687822739
 20
31.427880442
 10
181.1112938688
 20
31.2323271053
 10
181.1657087103
 20
31.0435756238
 10
181.2320267984
 20
30.856524606
 10
181.3102481331
 20
30.6745749797
 10
181.4003727144
 20
30.4977267447
 10
181.5024005423
 20
30.327680365
 10
181.6112302253
 20
30.167836768
 10
181.7302626911
 20
30.01649549
 10
181.8560970122
 20
29.8770574586
 10
181.992134116
 20
29.74782221
 10
182.134973075
 20
29.6287897441
 10
182.2880148168
 20
29.5199600611
 10
182.4478584137
 20
29.4213331608
 10
182.6162043297
 20
29.3329090434
 10
182.7913521009
 20
29.2580886363
 10
182.9733017272
 20
29.193471012
 10
183.1603527449
 20
29.1407566342
 10
183.3542056179
 20
29.0999455031
 10
183.554860346
 20
29.0710376185
 10
183.7623169293
 20
29.0523325167
 10
183.974874904
 20
29.0472311254
 10
183.974874904
 20
29.0472311254
 10
184.2282440099
 20
29.0574339081
 10
184.4714103329
 20
29.0897427203
 10
184.7043738732
 20
29.1407566342
 10
184.9271346307
 20
29.2138765775
 10
185.1396926054
 20
29.3091025502
 10
185.3420477973
 20
29.4230336246
 10
185.5342002064
 20
29.5590707284
 10
185.7161498328
 20
29.7155133978
 10
185.8844957488
 20
29.8889607052
 10
186.0358370267
 20
30.0726107953
 10
186.168473203
 20
30.2698645959
 10
186.2841047412
 20
30.4807221068
 10
186.3810311777
 20
30.7017824005
 10
186.4592525124
 20
30.9364464045
 10
186.5204692091
 20
31.1830136552
 10
186.5646812678
 20
31.4414841524
 10
186.5646812678
 20
31.4414841524
 10
185.8028734865
 20
31.4414841524
 10
185.8028734865
 20
31.4414841524
 10
185.7416567898
 20
31.2000182932
 10
185.6634354551
 20
30.9840593909
 10
185.5665090186
 20
30.7902065179
 10
185.4508774804
 20
30.621860602
 10
185.3165408403
 20
30.470519324
 10
185.1634990986
 20
30.336182684
 10
184.9883513274
 20
30.2154497543
 10
184.7927979907
 20
30.1117214627
 10
184.5853414074
 20
30.0266982728
 10
184.3710829689
 20
29.9654815761
 10
184.1534236028
 20
29.9297718363
 10
183.9306628453
 20
29.9178685897
 10
183.9306628453
 20
29.9178685897
 10
183.7130034792
 20
29.9280713725
 10
183.5038464321
 20
29.9569792571
 10
183.3014912402
 20
30.0045922434
 10
183.1076383672
 20
30.0709103315
 10
182.9222878133
 20
30.1576339852
 10
182.7437391145
 20
30.2647632045
 10
182.5736927348
 20
30.3888970617
 10
182.4104482102
 20
30.5334364845
 10
182.2625078598
 20
30.6915796177
 10
182.1332726112
 20
30.8599255336
 10
182.0244429281
 20
31.0384742324
 10
181.9343183469
 20
31.2255252501
 10
181.8645993312
 20
31.4227790506
 10
181.815285881
 20
31.6285351702
 10
181.7863779965
 20
31.8444940725
 10
181.7761752137
 20
32.0706557575
 10
181.7761752137
 20
32.0706557575
 10
181.7846775327
 20
32.2747114133
 10
181.8118849534
 20
32.4668638224
 10
181.8543965484
 20
32.6522143763
 10
181.9156132451
 20
32.8256616837
 10
181.9938345798
 20
32.9906066721
 10
182.0907610162
 20
33.1436484139
 10
182.2029916269
 20
33.2898883004
 10
182.3339273393
 20
33.4242249405
 10
182.4784667621
 20
33.5466583339
 10
182.6366098953
 20
33.6520870893
 10
182.8049558112
 20
33.7405112068
 10
182.9852049738
 20
33.8136311501
 10
183.1773573829
 20
33.8714469192
 10
183.3814130386
 20
33.9122580504
 10
183.5956714771
 20
33.9360645435
 10
183.823533626
 20
33.9445668625
 10
183.823533626
 20
33.9445668625
 10
184.0224878903
 20
33.9377650073
 10
184.2299444737
 20
33.9173594418
 10
184.4493043036
 20
33.8833501658
 10
184.6771664524
 20
33.8357371795
 10
184.9169318479
 20
33.7745204828
 10
185.1651995624
 20
33.6997000757
 10
185.4253705234
 20
33.6112759582
 10
185.6940438034
 20
33.5092481303
 10
185.6940438034
 20
33.5092481303
 10
184.823406339
 20
37.7536057692
 10
184.823406339
 20
37.7536057692
 10
181.3408564815
 20
37.7536057692
  0
LWPOLYLINE
  5
C1
330
1F
100
AcDbEntity
  8
0
  6
Continuous
 62
     7
100
AcDbPolyline
 90
       20
 70
   128
 43
0.0
 10
182.0397377014
 20
-12.0287348647
 10
181.8850048967
 20
-12.0287348647
 10
181.8850048967
 20
-12.0287348647
 10
181.8850048967
 20
-17.9055377493
 10
181.8850048967
 20
-17.9055377493
 10
180.9055377493
 20
-17.9055377493
 10
180.9055377493
 20
-17.9055377493
 10
180.9055377493
 20
-18.7761752137
 10
180.9055377493
 20
-18.7761752137
 10
181.8850048967
 20
-18.7761752137
 10
181.8850048967
 20
-18.7761752137
 10
181.8850048967
 20
-20.7351095085
 10
181.8850048967
 20
-20.7351095085
 10
182.6468126781
 20
-20.7351095085
 10
182.6468126781
 20
-20.7351095085
 10
182.6468126781
 20
-18.7761752137
 10
182.6468126781
 20
-18.7761752137
 10
186.6735109509
 20
-18.7761752137
 10
186.6735109509
 20
-18.7761752137
 10
182.0397471023
 20
-12.0287348647
  0
LWPOLYLINE
  5
C2
330
1F
100
AcDbEntity
  8
0
  6
Continuous
 62
     7
100
AcDbPolyline
 90
        6
 70
   128
 43
0.0
 10
182.6467514038
 20
-17.9055377493
 10
182.6468126781
 20
-14.218932236
 10
182.6468126781
 20
-14.218932236
 10
185.1771028089
 20
-17.9055377493
 10
185.1771028089
 20
-17.9055377493
 10
182.6468126781
 20
-17.9055377493
  0
LWPOLYLINE
  5
C3
330
1F
100
AcDbEntity
  8
0
  6
Continuous
 62
     7
100
AcDbPolyline
 90
      184
 70
   128
 43
0.0
 10
185.5851411819
 20
-64.2053285256
 10
186.3470219017
 20
-64.2053285256
 10
186.3470219017
 20
-64.2053285256
 10
186.2807038136
 20
-63.950258956
 10
186.1990815513
 20
-63.7121940243
 10
186.1055560424
 20
-63.487732803
 10
185.9967263594
 20
-63.2785757559
 10
185.8759934298
 20
-63.084722883
 10
185.739956326
 20
-62.9061741843
 10
185.5903155118
 20
-62.7412291959
 10
185.4270709872
 20
-62.5932888455
 10
185.2536236798
 20
-62.4606526693
 10
185.0716740535
 20
-62.3467215948
 10
184.8829225719
 20
-62.2497951584
 10
184.6856687714
 20
-62.1698733599
 10
184.4799126519
 20
-62.1086566632
 10
184.2673546772
 20
-62.0644446044
 10
184.0479948473
 20
-62.0372371837
 10
183.8201326984
 20
-62.0287348647
 10
183.8201326984
 20
-62.0287348647
 10
183.4885422579
 20
-62.0474399664
 10
183.1688550639
 20
-62.1052557356
 10
182.8610711166
 20
-62.2004817082
 10
182.563489952
 20
-62.3331178844
 10
182.2880148168
 20
-62.4980628728
 10
182.0465489575
 20
-62.690215282
 10
181.8373919104
 20
-62.9095751118
 10
181.6605436754
 20
-63.1544418987
 10
181.521105644
 20
-63.4163133235
 10
181.42077828
 20
-63.6832861398
 10
181.3612620471
 20
-63.9553603474
 10
181.3408564815
 20
-64.2342364102
 10
181.3408564815
 20
-64.2342364102
 10
181.3561606557
 20
-64.5029096902
 10
181.4020731782
 20
-64.7562787961
 10
181.4802945129
 20
-64.9960441915
 10
181.5891241959
 20
-65.2222058766
 10
181.7285622273
 20
-65.4330633875
 10
181.8986086071
 20
-65.6303171881
 10
182.0992633352
 20
-65.8122668144
 10
182.3322268755
 20
-65.9806127304
 10
182.3322268755
 20
-65.9806127304
 10
182.0652540593
 20
-66.118350298
 10
181.8220877362
 20
-66.2866962139
 10
181.6044283701
 20
-66.4805490869
 10
181.412275961
 20
-66.7050103082
 10
181.412275961
 20
-66.7050103082
 10
181.2932434951
 20
-66.8750566879
 10
181.1912156673
 20
-67.0519049229
 10
181.1027915498
 20
-67.2321540854
 10
181.0330725341
 20
-67.4192051032
 10
180.9769572288
 20
-67.6096570485
 10
180.9378465614
 20
-67.8052103852
 10
180.9140400683
 20
-68.0075655771
 10
180.9055377493
 20
-68.2133216967
 10
180.9055377493
 20
-68.2133216967
 10
180.9293442425
 20
-68.5687186304
 10
181.0024641858
 20
-68.9156132451
 10
181.1231971154
 20
-69.2557060046
 10
181.2915430314
 20
-69.5855959813
 10
181.5024005423
 20
-69.8933799287
 10
181.7489677929
 20
-70.1654541363
 10
182.0312447833
 20
-70.3984176766
 10
182.3475310497
 20
-70.5956714771
 10
182.6910247368
 20
-70.7521141465
 10
183.0549239895
 20
-70.8643447572
 10
183.4392288078
 20
-70.9306628453
 10
183.8422387278
 20
-70.9527688746
 10
183.8422387278
 20
-70.9527688746
 10
184.1143129354
 20
-70.9425660919
 10
184.3761843603
 20
-70.9136582073
 10
184.6261525385
 20
-70.8626442934
 10
184.8642174702
 20
-70.7946257415
 10
185.0903791553
 20
-70.7045011602
 10
185.3046375938
 20
-70.5956714771
 10
185.5086932495
 20
-70.4664362285
 10
185.7008456586
 20
-70.3167954143
 10
185.8793943574
 20
-70.1484494984
 10
186.0409384181
 20
-69.9613984806
 10
186.1871783047
 20
-69.7556423611
 10
186.3164135534
 20
-69.5328816036
 10
186.4303446278
 20
-69.2897152806
 10
186.5272710643
 20
-69.0278438557
 10
186.6088933265
 20
-68.7489677929
 10
186.6735109509
 20
-68.4496861645
 10
186.6735109509
 20
-68.4496861645
 10
185.9117031695
 20
-68.4496861645
 10
185.9117031695
 20
-68.4496861645
 10
185.8504864728
 20
-68.6452395013
 10
185.7841683847
 20
-68.8271891276
 10
185.7093479776
 20
-68.9955350436
 10
185.6294261791
 20
-69.1485767854
 10
185.5444029892
 20
-69.2880148168
 10
185.4508774804
 20
-69.4138491378
 10
185.3522505801
 20
-69.5260797484
 10
185.2468218246
 20
-69.6230061849
 10
185.2468218246
 20
-69.6230061849
 10
185.1022824018
 20
-69.7301354041
 10
184.9492406601
 20
-69.823660913
 10
184.7859961355
 20
-69.9035827115
 10
184.6142492919
 20
-69.9682003358
 10
184.4322996656
 20
-70.0175137859
 10
184.2401472564
 20
-70.0532235257
 10
184.0394925283
 20
-70.0753295551
 10
183.8286350174
 20
-70.0821314103
 10
183.8286350174
 20
-70.0821314103
 10
183.5905700857
 20
-70.0736290913
 10
183.3644084007
 20
-70.0481221343
 10
183.1501499622
 20
-70.0073110032
 10
182.9477947702
 20
-69.9477947702
 10
182.7573428249
 20
-69.8729743631
 10
182.58049459
 20
-69.7794488543
 10
182.4138491378
 20
-69.6706191712
 10
182.2591069322
 20
-69.5447848502
 10
182.1196689008
 20
-69.4070472826
 10
182.000636435
 20
-69.2642083236
 10
181.8986086071
 20
-69.1162679732
 10
181.815285881
 20
-68.9615257676
 10
181.7506682567
 20
-68.8016821706
 10
181.7047557342
 20
-68.6350367185
 10
181.6758478496
 20
-68.4632898749
 10
181.6673455306
 20
-68.28644164
 10
181.6673455306
 20
-68.28644164
 10
181.6860506324
 20
-68.0500771721
 10
181.7404654739
 20
-67.8205145594
 10
181.832290519
 20
-67.5994542657
 10
181.9615257676
 20
-67.3851958272
 10
182.1213693646
 20
-67.1896424905
 10
182.3050194547
 20
-67.0178956469
 10
182.5141765018
 20
-66.8733562241
 10
182.7488405059
 20
-66.7543237583
 10
182.8814766821
 20
-66.7033098444
 10
183.0294170325
 20
-66.6573973218
 10
183.1960624847
 20
-66.6182866545
 10
183.3797125748
 20
-66.5825769147
 10
183.5786668392
 20
-66.5519685664
 10
183.7946257415
 20
-66.5264616094
 10
184.0292897455
 20
-66.5060560438
 10
184.2792579238
 20
-66.4907518697
 10
184.2792579238
 20
-66.4907518697
 10
184.2792579238
 20
-65.6201144053
 10
184.2792579238
 20
-65.6201144053
 10
183.9646721212
 20
-65.6082111587
 10
183.6653904928
 20
-65.5708009551
 10
183.3797125748
 20
-65.5078837946
 10
183.1076383672
 20
-65.4194596772
 10
182.8627715804
 20
-65.3123304579
 10
182.6519140695
 20
-65.1915975283
 10
182.4784667621
 20
-65.0555604245
 10
182.3407291945
 20
-64.9076200741
 10
182.2370009028
 20
-64.7494769409
 10
182.1621804957
 20
-64.5845319525
 10
182.117968437
 20
-64.4110846452
 10
182.1026642628
 20
-64.2308354826
 10
182.1026642628
 20
-64.2308354826
 10
182.109466118
 20
-64.0981993064
 10
182.1332726112
 20
-63.9689640578
 10
182.1706828147
 20
-63.8448302005
 10
182.2233971925
 20
-63.7257977347
 10
182.2914157444
 20
-63.6118666603
 10
182.3747384704
 20
-63.5013365134
 10
182.4716649069
 20
-63.395907758
 10
182.5855959813
 20
-63.2938799301
 10
182.7114303024
 20
-63.202054885
 10
182.8440664786
 20
-63.1221330865
 10
182.9852049738
 20
-63.0541145346
 10
183.134845788
 20
-62.9979992293
 10
183.2912884574
 20
-62.9554876344
 10
183.4562334457
 20
-62.924879286
 10
183.6296807531
 20
-62.9061741843
 10
183.8099299156
 20
-62.8993723291
 10
183.8099299156
 20
-62.8993723291
 10
184.0990087612
 20
-62.9180774308
 10
184.3693825051
 20
-62.9741927362
 10
184.6176502195
 20
-63.0660177812
 10
184.8455123684
 20
-63.1969534936
 10
184.9526415877
 20
-63.2785757559
 10
185.0563698793
 20
-63.3721012648
 10
185.1549967796
 20
-63.4775300203
 10
185.2485222884
 20
-63.5982629499
 10
185.3386468697
 20
-63.7308991261
 10
185.4253705234
 20
-63.8754385489
 10
185.5069927857
 20
-64.0335816821
 10
185.5852141204
 20
-64.2053285256
  0
LWPOLYLINE
  5
C4
330
1F
100
AcDbEntity
  8
0
  6
Continuous
 62
     7
100
AcDbPolyline
 90
      106
 70
   128
 43
0.0
 10
185.5851411819
 20
-114.8583066239
 10
186.3470219017
 20
-114.8583066239
 10
186.3470219017
 20
-114.8583066239
 10
186.3266163361
 20
-114.555624068
 10
186.2824042774
 20
-114.2665452224
 10
186.2160861893
 20
-113.9927705509
 10
186.1242611442
 20
-113.7308991261
 10
186.0103300698
 20
-113.4843318754
 10
185.8708920384
 20
-113.2496678714
 10
185.7093479776
 20
-113.0303080415
 10
185.5239974237
 20
-112.824551922
 10
185.3216422317
 20
-112.6375009042
 10
185.1073837932
 20
-112.4759568434
 10
184.8812221082
 20
-112.3399197396
 10
184.6448576403
 20
-112.227689129
 10
184.394889462
 20
-112.1409654753
 10
184.134718501
 20
-112.0780483148
 10
183.8626442934
 20
-112.0406381113
 10
183.5786668392
 20
-112.0287348647
 10
183.5786668392
 20
-112.0287348647
 10
183.2997907764
 20
-112.0406381113
 10
183.0328179601
 20
-112.076347851
 10
182.7811493181
 20
-112.1341636201
 10
182.5413839226
 20
-112.2174863462
 10
182.3169227013
 20
-112.3229151017
 10
182.1060651904
 20
-112.4521503503
 10
181.9071109261
 20
-112.6034916283
 10
181.7234608359
 20
-112.7803398632
 10
181.5568153838
 20
-112.9724922724
 10
181.4139764248
 20
-113.1731470005
 10
181.2915430314
 20
-113.3823040476
 10
181.1912156673
 20
-113.5999634137
 10
181.1146947964
 20
-113.824424635
 10
181.0585794911
 20
-114.059088639
 10
181.0262706789
 20
-114.3005544983
 10
181.0143674323
 20
-114.5522231404
 10
181.0143674323
 20
-114.5522231404
 10
181.0364734617
 20
-114.9059196103
 10
181.1027915498
 20
-115.2477128336
 10
181.2116212329
 20
-115.5776028103
 10
181.3663634384
 20
-115.8972900043
 10
181.4649903387
 20
-116.0605345289
 10
181.5840228045
 20
-116.2390832276
 10
181.7234608359
 20
-116.4312356367
 10
181.8833044329
 20
-116.6369917563
 10
182.0652540593
 20
-116.8563515861
 10
182.2659087874
 20
-117.0893151264
 10
182.4886695449
 20
-117.3358823771
 10
182.7318358679
 20
-117.5977538019
 10
182.7318358679
 20
-117.5977538019
 10
184.8557151512
 20
-119.8644720442
 10
184.8557151512
 20
-119.8644720442
 10
180.9055377493
 20
-119.8644720442
 10
180.9055377493
 20
-119.8644720442
 10
180.9055377493
 20
-120.7351095085
 10
180.9055377493
 20
-120.7351095085
 10
186.6735109509
 20
-120.7351095085
 10
186.6735109509
 20
-120.7351095085
 10
183.3814130386
 20
-117.2219513026
 10
183.3814130386
 20
-117.2219513026
 10
183.1416476432
 20
-116.9702826606
 10
182.9239882771
 20
-116.7356186565
 10
182.7284349403
 20
-116.5179592904
 10
182.554987633
 20
-116.3173045623
 10
182.4019458912
 20
-116.1319540084
 10
182.2727106426
 20
-115.9653085562
 10
182.1638809595
 20
-115.8139672782
 10
182.0771573059
 20
-115.6796306382
 10
181.9462215934
 20
-115.4245610685
 10
181.8509956208
 20
-115.1626896437
 10
181.7948803154
 20
-114.8957168275
 10
181.7761752137
 20
-114.6202416923
 10
181.7761752137
 20
-114.6202416923
 10
181.7846775327
 20
-114.4467943849
 10
181.8101844896
 20
-114.2801489327
 10
181.8509956208
 20
-114.1203053358
 10
181.9105118537
 20
-113.9655631302
 10
181.9853322608
 20
-113.815922316
 10
182.0771573059
 20
-113.6747838208
 10
182.1842865251
 20
-113.538746717
 10
182.3101208461
 20
-113.4078110046
 10
182.4478584137
 20
-113.2887785387
 10
182.5923978365
 20
-113.1850502471
 10
182.7437391145
 20
-113.0983265934
 10
182.9035827115
 20
-113.0269071139
 10
183.0719286275
 20
-112.9707918086
 10
183.2453759348
 20
-112.9316811412
 10
183.4273255612
 20
-112.907874648
 10
183.6177775065
 20
-112.8993723291
 10
183.6177775065
 20
-112.8993723291
 10
183.8167317708
 20
-112.907874648
 10
184.0071837162
 20
-112.9316811412
 10
184.1891333425
 20
-112.9707918086
 10
184.3625806499
 20
-113.0286075777
 10
184.5275256382
 20
-113.1000270572
 10
184.6822678438
 20
-113.1884511747
 10
184.8302081942
 20
-113.2921794663
 10
184.9696462256
 20
-113.4129123959
 10
185.0971810105
 20
-113.5489494998
 10
185.2111120849
 20
-113.6968898501
 10
185.3097389852
 20
-113.8584339109
 10
185.394762175
 20
-114.0318812183
 10
185.4627807269
 20
-114.218932236
 10
185.5188960323
 20
-114.4195869641
 10
185.5597071634
 20
-114.6321449388
 10
185.5852141204
 20
-114.8583066239
  0
LWPOLYLINE
  5
C5
330
1F
100
AcDbEntity
  8
0
  6
Continuous
 62
     7
100
AcDbPolyline
 90
       12
 70
   128
 43
0.0
 10
184.8692893982
 20
-162.2463942308
 10
183.2997907764
 20
-162.2463942308
 10
183.2997907764
 20
-162.2463942308
 10
183.2997907764
 20
-170.7351095085
 10
183.2997907764
 20
-170.7351095085
 10
184.0615985577
 20
-170.7351095085
 10
184.0615985577
 20
-170.7351095085
 10
184.0615985577
 20
-163.1170316952
 10
184.0615985577
 20
-163.1170316952
 10
185.3675547543
 20
-163.1170316952
 10
185.3675547543
 20
-163.1170316952
 10
184.8693188616
 20
-162.2463942308
  0
MTEXT
  5
C7
330
1F
100
AcDbEntity
  8
0
  6
Continuous
 62
     7
100
AcDbMText
 10
-250.0
 20
-211.0195663917
 30
0.0
 40
4.83362
 41
0.0
 71
     1
 72
     1
  1
SOLIDWORKS Educational Product.
  7
SLDTEXTSTYLE0
 73
     1
 44
1.0
  0
MTEXT
  5
C8
330
1F
100
AcDbEntity
  8
0
  6
Continuous
 62
     7
100
AcDbMText
 10
-250.0
 20
-218.2699963917
 30
0.0
 40
4.83362
 41
0.0
 71
     1
 72
     1
  1
For Instructional Use Only.
  7
SLDTEXTSTYLE0
 73
     1
 44
1.0
  0
ENDSEC
  0
SECTION
  2
OBJECTS
  0
DICTIONARY
  5
C
330
0
100
AcDbDictionary
281
     1
  3
ACAD_GROUP
350
D
  3
ACAD_LAYOUT
350
1A
  3
ACAD_MLINESTYLE
350
17
  3
ACAD_PLOTSETTINGS
350
19
  3
ACAD_PLOTSTYLENAME
350
E
  3
ACAD_SCALELIST
350
47
  0
DICTIONARY
  5
D
102
{ACAD_REACTORS
330
C
102
}
330
C
100
AcDbDictionary
281
     1
  0
DICTIONARY
  5
1A
102
{ACAD_REACTORS
330
C
102
}
330
C
100
AcDbDictionary
281
     1
  3
Layout1
350
1E
  3
Layout2
350
26
  3
Model
350
22
  0
DICTIONARY
  5
17
102
{ACAD_REACTORS
330
C
102
}
330
C
100
AcDbDictionary
281
     1
  3
Standard
350
18
  0
DICTIONARY
  5
19
102
{ACAD_REACTORS
330
C
102
}
330
C
100
AcDbDictionary
281
     1
  0
ACDBDICTIONARYWDFLT
  5
E
102
{ACAD_REACTORS
330
C
102
}
330
C
100
AcDbDictionary
281
     1
  3
Normal
350
F
100
AcDbDictionaryWithDefault
340
F
  0
DICTIONARY
  5
47
102
{ACAD_REACTORS
330
C
102
}
330
C
100
AcDbDictionary
281
     1
  3
A0
350
48
  3
A1
350
49
  3
A2
350
4A
  3
A3
350
4B
  3
A4
350
4C
  3
A5
350
4D
  3
A6
350
4E
  3
A7
350
4F
  3
A8
350
50
  3
A9
350
51
  3
B0
350
52
  3
B1
350
53
  3
B2
350
54
  3
B3
350
55
  3
B4
350
56
  3
B5
350
57
  3
B6
350
58
  3
B7
350
59
  3
B8
350
5A
  3
B9
350
5B
  3
C0
350
5C
  3
C1
350
5D
  3
C2
350
5E
  3
C3
350
5F
  3
C4
350
60
  3
C5
350
61
  3
C6
350
62
  3
C7
350
63
  3
C8
350
64
  3
C9
350
65
  3
D0
350
66
  3
D1
350
67
  3
D2
350
68
  0
LAYOUT
  5
1E
102
{ACAD_REACTORS
330
1A
102
}
330
1A
100
AcDbPlotSettings
  1

  2
none_device
  4

  6

 40
0.0
 41
0.0
 42
0.0
 43
0.0
 44
0.0
 45
0.0
 46
0.0
 47
0.0
 48
0.0
 49
0.0
140
0.0
141
0.0
142
1.0
143
1.0
 70
   688
 72
     1
 73
     0
 74
     5
  7

 75
    16
147
1.0
148
0.0
149
0.0
100
AcDbLayout
  1
Layout1
 70
     1
 71
     1
 10
0.0
 20
0.0
 11
420.0
 21
297.0
 12
0.0
 22
0.0
 32
0.0
 14
1.0000000000E+20
 24
1.0000000000E+20
 34
1.0000000000E+20
 15
-1.0000000000E+20
 25
-1.0000000000E+20
 35
-1.0000000000E+20
146
0.0
 13
0.0
 23
0.0
 33
0.0
 16
1.0
 26
0.0
 36
0.0
 17
0.0
 27
1.0
 37
0.0
 76
     0
330
1B
  0
LAYOUT
  5
26
102
{ACAD_REACTORS
330
1A
102
}
330
1A
100
AcDbPlotSettings
  1

  2
none_device
  4

  6

 40
0.0
 41
0.0
 42
0.0
 43
0.0
 44
0.0
 45
0.0
 46
0.0
 47
0.0
 48
0.0
 49
0.0
140
0.0
141
0.0
142
1.0
143
1.0
 70
   688
 72
     1
 73
     0
 74
     5
  7

 75
    16
147
1.0
148
0.0
149
0.0
100
AcDbLayout
  1
Layout2
 70
     1
 71
     2
 10
0.0
 20
0.0
 11
0.0
 21
0.0
 12
0.0
 22
0.0
 32
0.0
 14
0.0
 24
0.0
 34
0.0
 15
0.0
 25
0.0
 35
0.0
146
0.0
 13
0.0
 23
0.0
 33
0.0
 16
1.0
 26
0.0
 36
0.0
 17
0.0
 27
1.0
 37
0.0
 76
     0
330
23
  0
LAYOUT
  5
22
102
{ACAD_REACTORS
330
1A
102
}
330
1A
100
AcDbPlotSettings
  1

  2
none_device
  4
ANSI_A_(11.00_x_8.50_Inches)
  6

 40
6.35
 41
19.05
 42
6.35000508
 43
19.05000254
 44
279.4
 45
215.9
 46
132.8288607463
 47
78.2457515865
 48
0.0
 49
0.0
140
0.0
141
0.0
142
0.0180382926
143
1.0
 70
  1696
 72
     0
 73
     0
 74
     0
  7

 75
     0
147
0.0179189148
148
-1300.4909072572
149
0.0
100
AcDbLayout
  1
Model
 70
     1
 71
     0
 10
0.0
 20
0.0
 11
420.0
 21
297.0
 12
0.0
 22
0.0
 32
0.0
 14
-250.0
 24
-210.0
 34
0.0
 15
252.2748487212
 25
256.5075667304
 35
0.0
146
0.0
 13
0.0
 23
0.0
 33
0.0
 16
1.0
 26
0.0
 36
0.0
 17
0.0
 27
1.0
 37
0.0
 76
     0
330
1F
331
29
  0
MLINESTYLE
  5
18
102
{ACAD_REACTORS
330
17
102
}
330
17
100
AcDbMlineStyle
  2
Standard
 70
     0
  3

 62
   256
 51
90.0
 52
90.0
 71
     2
 49
0.5
 62
   256
  6
BYLAYER
 49
-0.5
 62
   256
  6
BYLAYER
  0
ACDBPLACEHOLDER
  5
F
102
{ACAD_REACTORS
330
E
102
}
330
E
  0
SCALE
  5
48
102
{ACAD_REACTORS
330
47
102
}
330
47
100
AcDbScale
 70
     0
300
1:1
140
1.0
141
1.0
290
     1
  0
SCALE
  5
49
102
{ACAD_REACTORS
330
47
102
}
330
47
100
AcDbScale
 70
     0
300
1:2
140
1.0
141
2.0
290
     0
  0
SCALE
  5
4A
102
{ACAD_REACTORS
330
47
102
}
330
47
100
AcDbScale
 70
     0
300
1:4
140
1.0
141
4.0
290
     0
  0
SCALE
  5
4B
102
{ACAD_REACTORS
330
47
102
}
330
47
100
AcDbScale
 70
     0
300
1:5
140
1.0
141
5.0
290
     0
  0
SCALE
  5
4C
102
{ACAD_REACTORS
330
47
102
}
330
47
100
AcDbScale
 70
     0
300
1:8
140
1.0
141
8.0
290
     0
  0
SCALE
  5
4D
102
{ACAD_REACTORS
330
47
102
}
330
47
100
AcDbScale
 70
     0
300
1:10
140
1.0
141
10.0
290
     0
  0
SCALE
  5
4E
102
{ACAD_REACTORS
330
47
102
}
330
47
100
AcDbScale
 70
     0
300
1:16
140
1.0
141
16.0
290
     0
  0
SCALE
  5
4F
102
{ACAD_REACTORS
330
47
102
}
330
47
100
AcDbScale
 70
     0
300
1:20
140
1.0
141
20.0
290
     0
  0
SCALE
  5
50
102
{ACAD_REACTORS
330
47
102
}
330
47
100
AcDbScale
 70
     0
300
1:30
140
1.0
141
30.0
290
     0
  0
SCALE
  5
51
102
{ACAD_REACTORS
330
47
102
}
330
47
100
AcDbScale
 70
     0
300
1:40
140
1.0
141
40.0
290
     0
  0
SCALE
  5
52
102
{ACAD_REACTORS
330
47
102
}
330
47
100
AcDbScale
 70
     0
300
1:50
140
1.0
141
50.0
290
     0
  0
SCALE
  5
53
102
{ACAD_REACTORS
330
47
102
}
330
47
100
AcDbScale
 70
     0
300
1:100
140
1.0
141
100.0
290
     0
  0
SCALE
  5
54
102
{ACAD_REACTORS
330
47
102
}
330
47
100
AcDbScale
 70
     0
300
2:1
140
2.0
141
1.0
290
     0
  0
SCALE
  5
55
102
{ACAD_REACTORS
330
47
102
}
330
47
100
AcDbScale
 70
     0
300
4:1
140
4.0
141
1.0
290
     0
  0
SCALE
  5
56
102
{ACAD_REACTORS
330
47
102
}
330
47
100
AcDbScale
 70
     0
300
8:1
140
8.0
141
1.0
290
     0
  0
SCALE
  5
57
102
{ACAD_REACTORS
330
47
102
}
330
47
100
AcDbScale
 70
     0
300
10:1
140
10.0
141
1.0
290
     0
  0
SCALE
  5
58
102
{ACAD_REACTORS
330
47
102
}
330
47
100
AcDbScale
 70
     0
300
100:1
140
100.0
141
1.0
290
     0
  0
SCALE
  5
59
102
{ACAD_REACTORS
330
47
102
}
330
47
100
AcDbScale
 70
     0
300
1/128" = 1'-0"
140
0.0078125
141
12.0
290
     0
  0
SCALE
  5
5A
102
{ACAD_REACTORS
330
47
102
}
330
47
100
AcDbScale
 70
     0
300
1/64" = 1'-0"
140
0.015625
141
12.0
290
     0
  0
SCALE
  5
5B
102
{ACAD_REACTORS
330
47
102
}
330
47
100
AcDbScale
 70
     0
300
1/32" = 1'-0"
140
0.03125
141
12.0
290
     0
  0
SCALE
  5
5C
102
{ACAD_REACTORS
330
47
102
}
330
47
100
AcDbScale
 70
     0
300
1/16" = 1'-0"
140
0.0625
141
12.0
290
     0
  0
SCALE
  5
5D
102
{ACAD_REACTORS
330
47
102
}
330
47
100
AcDbScale
 70
     0
300
3/32" = 1'-0"
140
0.09375
141
12.0
290
     0
  0
SCALE
  5
5E
102
{ACAD_REACTORS
330
47
102
}
330
47
100
AcDbScale
 70
     0
300
1/8" = 1'-0"
140
0.125
141
12.0
290
     0
  0
SCALE
  5
5F
102
{ACAD_REACTORS
330
47
102
}
330
47
100
AcDbScale
 70
     0
300
3/16" = 1'-0"
140
0.1875
141
12.0
290
     0
  0
SCALE
  5
60
102
{ACAD_REACTORS
330
47
102
}
330
47
100
AcDbScale
 70
     0
300
1/4" = 1'-0"
140
0.25
141
12.0
290
     0
  0
SCALE
  5
61
102
{ACAD_REACTORS
330
47
102
}
330
47
100
AcDbScale
 70
     0
300
3/8" = 1'-0"
140
0.375
141
12.0
290
     0
  0
SCALE
  5
62
102
{ACAD_REACTORS
330
47
102
}
330
47
100
AcDbScale
 70
     0
300
1/2" = 1'-0"
140
0.5
141
12.0
290
     0
  0
SCALE
  5
63
102
{ACAD_REACTORS
330
47
102
}
330
47
100
AcDbScale
 70
     0
300
3/4" = 1'-0"
140
0.75
141
12.0
290
     0
  0
SCALE
  5
64
102
{ACAD_REACTORS
330
47
102
}
330
47
100
AcDbScale
 70
     0
300
1" = 1'-0"
140
1.0
141
12.0
290
     0
  0
SCALE
  5
65
102
{ACAD_REACTORS
330
47
102
}
330
47
100
AcDbScale
 70
     0
300
1-1/2" = 1'-0"
140
1.5
141
12.0
290
     0
  0
SCALE
  5
66
102
{ACAD_REACTORS
330
47
102
}
330
47
100
AcDbScale
 70
     0
300
3" = 1'-0"
140
3.0
141
12.0
290
     0
  0
SCALE
  5
67
102
{ACAD_REACTORS
330
47
102
}
330
47
100
AcDbScale
 70
     0
300
6" = 1'-0"
140
6.0
141
12.0
290
     0
  0
SCALE
  5
68
102
{ACAD_REACTORS
330
47
102
}
330
47
100
AcDbScale
 70
     0
300
1'-0" = 1'-0"
140
12.0
141
12.0
290
     0
  0
ENDSEC
  0
EOF
